<svg width="278" height="90" viewBox="0 0 278 90" fill="none" xmlns="http://www.w3.org/2000/svg">
<mask id="path-1-inside-1_3514_22073" fill="white">
<path d="M0.36 68.76C11.08 60.76 19.56 53.52 25.8 47.04C32.04 40.48 35.16 34.36 35.16 28.68C35.16 26.76 34.72 25.28 33.84 24.24C33.04 23.2 31.96 22.68 30.6 22.68C29 22.68 27.72 23.52 26.76 25.2C25.88 26.8 25.56 29.28 25.8 32.64H4.47035e-08C0.24 25.2 1.84 19.08 4.8 14.28C7.84 9.47999 11.76 5.95999 16.56 3.72C21.36 1.48 26.64 0.359995 32.4 0.359995C42.64 0.359995 50.12 2.83999 54.84 7.79999C59.64 12.68 62.04 18.96 62.04 26.64C62.04 34.72 59.44 42.32 54.24 49.44C49.12 56.48 42.68 62.44 34.92 67.32H62.4V88.8H0.36V68.76ZM64.0088 44.88C64.0088 31.04 66.9288 20.16 72.7688 12.24C78.6888 4.32 87.7688 0.359995 100.009 0.359995C112.169 0.359995 121.209 4.36 127.129 12.36C133.049 20.28 136.009 31.12 136.009 44.88C136.009 58.72 133.049 69.64 127.129 77.64C121.209 85.56 112.169 89.52 100.009 89.52C87.7688 89.52 78.6888 85.56 72.7688 77.64C66.9288 69.64 64.0088 58.72 64.0088 44.88ZM109.729 44.88C109.729 38.48 109.089 33.68 107.809 30.48C106.529 27.2 103.929 25.56 100.009 25.56C96.0088 25.56 93.3688 27.2 92.0888 30.48C90.8088 33.68 90.1688 38.48 90.1688 44.88C90.1688 51.36 90.8088 56.24 92.0888 59.52C93.3688 62.72 96.0088 64.32 100.009 64.32C103.929 64.32 106.529 62.72 107.809 59.52C109.089 56.24 109.729 51.36 109.729 44.88ZM138.182 68.76C148.902 60.76 157.382 53.52 163.622 47.04C169.862 40.48 172.982 34.36 172.982 28.68C172.982 26.76 172.542 25.28 171.662 24.24C170.862 23.2 169.782 22.68 168.422 22.68C166.822 22.68 165.542 23.52 164.582 25.2C163.702 26.8 163.382 29.28 163.622 32.64H137.822C138.062 25.2 139.662 19.08 142.622 14.28C145.662 9.47999 149.582 5.95999 154.382 3.72C159.182 1.48 164.462 0.359995 170.222 0.359995C180.462 0.359995 187.942 2.83999 192.662 7.79999C197.462 12.68 199.862 18.96 199.862 26.64C199.862 34.72 197.262 42.32 192.062 49.44C186.942 56.48 180.502 62.44 172.742 67.32H200.222V88.8H138.182V68.76ZM204.231 76.8V54.6L239.991 3.6H268.671V53.76H277.311V76.8H268.671V90H241.791V76.8H204.231ZM243.951 33.96L230.991 53.76H243.951V33.96Z"/>
</mask>
<path d="M0.36 68.76L-0.537127 67.5579L-1.14 68.0078V68.76H0.36ZM25.8 47.04L26.8805 48.0805L26.8868 48.0738L25.8 47.04ZM33.84 24.24L32.6511 25.1546L32.6724 25.1822L32.6949 25.2089L33.84 24.24ZM26.76 25.2L25.4576 24.4558L25.4516 24.4664L25.4457 24.4771L26.76 25.2ZM25.8 32.64V34.14H27.411L27.2962 32.5331L25.8 32.64ZM4.47035e-08 32.64L-1.49922 32.5916L-1.54917 34.14H4.47035e-08V32.64ZM4.8 14.28L3.53277 13.4774L3.52796 13.485L3.52324 13.4927L4.8 14.28ZM16.56 3.72L15.9257 2.36072L15.9257 2.36072L16.56 3.72ZM54.84 7.79999L53.7534 8.83404L53.7619 8.84302L53.7706 8.85185L54.84 7.79999ZM54.24 49.44L53.0287 48.5553L53.0269 48.5577L54.24 49.44ZM34.92 67.32L34.1215 66.0502L29.7171 68.82H34.92V67.32ZM62.4 67.32H63.9V65.82H62.4V67.32ZM62.4 88.8V90.3H63.9V88.8H62.4ZM0.36 88.8H-1.14V90.3H0.36V88.8ZM1.25713 69.9621C12.0143 61.9344 20.5638 54.6401 26.8805 48.0805L24.7195 45.9995C18.5562 52.3999 10.1457 59.5856 -0.537127 67.5579L1.25713 69.9621ZM26.8868 48.0738C33.2413 41.3934 36.66 34.9187 36.66 28.68H33.66C33.66 33.8013 30.8387 39.5666 24.7132 46.0062L26.8868 48.0738ZM36.66 28.68C36.66 26.5487 36.1725 24.6743 34.9851 23.2711L32.6949 25.2089C33.2675 25.8857 33.66 26.9713 33.66 28.68H36.66ZM35.0289 23.3254C33.9331 21.9008 32.4059 21.18 30.6 21.18V24.18C31.5142 24.18 32.1469 24.4991 32.6511 25.1546L35.0289 23.3254ZM30.6 21.18C28.3408 21.18 26.6187 22.4239 25.4576 24.4558L28.0624 25.9442C28.8213 24.6161 29.6592 24.18 30.6 24.18V21.18ZM25.4457 24.4771C24.3516 26.4663 24.0581 29.3071 24.3038 32.7469L27.2962 32.5331C27.0619 29.2529 27.4084 27.1337 28.0743 25.9229L25.4457 24.4771ZM25.8 31.14H4.47035e-08V34.14H25.8V31.14ZM1.49922 32.6884C1.7334 25.4287 3.2912 19.5844 6.07676 15.0673L3.52324 13.4927C0.388796 18.5756 -1.2534 24.9713 -1.49922 32.5916L1.49922 32.6884ZM6.06723 15.0826C8.96545 10.5064 12.6732 7.18913 17.1943 5.07927L15.9257 2.36072C10.8468 4.73086 6.71455 8.45355 3.53277 13.4774L6.06723 15.0826ZM17.1943 5.07927C21.7788 2.93984 26.8398 1.86 32.4 1.86V-1.14C26.4402 -1.14 20.9412 0.0201503 15.9257 2.36072L17.1943 5.07927ZM32.4 1.86C42.4322 1.86 49.4312 4.29207 53.7534 8.83404L55.9266 6.76595C50.8088 1.38792 42.8478 -1.14 32.4 -1.14V1.86ZM53.7706 8.85185C58.26 13.4161 60.54 19.3012 60.54 26.64H63.54C63.54 18.6188 61.02 11.9439 55.9094 6.74813L53.7706 8.85185ZM60.54 26.64C60.54 34.3727 58.0591 41.6675 53.0287 48.5553L55.4513 50.3247C60.8209 42.9725 63.54 35.0673 63.54 26.64H60.54ZM53.0269 48.5577C48.0251 55.4353 41.7286 61.2664 34.1215 66.0502L35.7185 68.5898C43.6314 63.6136 50.2149 57.5247 55.4531 50.3223L53.0269 48.5577ZM34.92 68.82H62.4V65.82H34.92V68.82ZM60.9 67.32V88.8H63.9V67.32H60.9ZM62.4 87.3H0.36V90.3H62.4V87.3ZM1.86 88.8V68.76H-1.14V88.8H1.86ZM72.7688 12.24L71.5673 11.3419L71.5615 11.3498L72.7688 12.24ZM127.129 12.36L125.923 13.2523L125.927 13.2581L127.129 12.36ZM127.129 77.64L128.33 78.5381L128.335 78.5323L127.129 77.64ZM72.7688 77.64L71.5572 78.5244L71.5622 78.5313L71.5673 78.5381L72.7688 77.64ZM107.809 30.48L106.411 31.0253L106.416 31.0371L107.809 30.48ZM92.0888 30.48L93.4815 31.0371L93.4861 31.0253L92.0888 30.48ZM92.0888 59.52L90.6913 60.0653L90.696 60.0771L92.0888 59.52ZM107.809 59.52L109.202 60.0771L109.206 60.0653L107.809 59.52ZM65.5088 44.88C65.5088 31.2338 68.3896 20.7063 73.976 13.1302L71.5615 11.3498C65.4679 19.6137 62.5088 30.8462 62.5088 44.88H65.5088ZM73.9702 13.1381C79.5396 5.68712 88.1165 1.86 100.009 1.86V-1.14C87.421 -1.14 77.8379 2.95287 71.5673 11.3419L73.9702 13.1381ZM100.009 1.86C111.811 1.86 120.349 5.72049 125.923 13.2523L128.335 11.4677C122.068 2.99951 112.526 -1.14 100.009 -1.14V1.86ZM125.927 13.2581C131.591 20.8345 134.509 31.3198 134.509 44.88H137.509C137.509 30.9202 134.507 19.7255 128.33 11.4619L125.927 13.2581ZM134.509 44.88C134.509 58.5213 131.59 69.0896 125.923 76.7477L128.335 78.5323C134.508 70.1904 137.509 58.9187 137.509 44.88H134.509ZM125.927 76.7419C120.356 84.1955 111.817 88.02 100.009 88.02V91.02C112.52 91.02 122.062 86.9245 128.33 78.5381L125.927 76.7419ZM100.009 88.02C88.1165 88.02 79.5396 84.1929 73.9702 76.7419L71.5673 78.5381C77.8379 86.9271 87.421 91.02 100.009 91.02V88.02ZM73.9803 76.7556C68.3891 69.0965 65.5088 58.525 65.5088 44.88H62.5088C62.5088 58.915 65.4684 70.1835 71.5572 78.5244L73.9803 76.7556ZM111.229 44.88C111.229 38.4242 110.589 33.3928 109.201 29.9229L106.416 31.0371C107.588 33.9672 108.229 38.5358 108.229 44.88H111.229ZM109.206 29.9347C108.467 28.0411 107.309 26.5366 105.699 25.5213C104.102 24.5137 102.175 24.06 100.009 24.06V27.06C101.763 27.06 103.096 27.4263 104.098 28.0587C105.089 28.6834 105.87 29.6388 106.411 31.0253L109.206 29.9347ZM100.009 24.06C97.8081 24.06 95.8541 24.5114 94.2372 25.5158C92.6058 26.5293 91.4329 28.0346 90.6914 29.9347L93.4861 31.0253C94.0246 29.6454 94.8117 28.6907 95.8203 28.0642C96.8434 27.4286 98.2094 27.06 100.009 27.06V24.06ZM90.696 29.9229C89.3081 33.3928 88.6688 38.4242 88.6688 44.88H91.6688C91.6688 38.5358 92.3094 33.9672 93.4815 31.0371L90.696 29.9229ZM88.6688 44.88C88.6688 51.4167 89.3085 56.5217 90.6914 60.0653L93.4861 58.9747C92.309 55.9583 91.6688 51.3033 91.6688 44.88H88.6688ZM90.696 60.0771C91.4421 61.9423 92.6206 63.4145 94.2513 64.4028C95.8655 65.3811 97.8141 65.82 100.009 65.82V62.82C98.2034 62.82 96.832 62.4589 95.8062 61.8372C94.7969 61.2255 94.0154 60.2977 93.4815 58.9629L90.696 60.0771ZM100.009 65.82C102.169 65.82 104.09 65.3789 105.685 64.3975C107.294 63.4073 108.458 61.9358 109.201 60.0771L106.416 58.9629C105.88 60.3042 105.103 61.2327 104.113 61.8425C103.107 62.4611 101.769 62.82 100.009 62.82V65.82ZM109.206 60.0653C110.589 56.5217 111.229 51.4167 111.229 44.88H108.229C108.229 51.3033 107.589 55.9583 106.411 58.9747L109.206 60.0653ZM138.182 68.76L137.285 67.5579L136.682 68.0078V68.76H138.182ZM163.622 47.04L164.702 48.0805L164.709 48.0738L163.622 47.04ZM171.662 24.24L170.473 25.1546L170.494 25.1822L170.517 25.2089L171.662 24.24ZM164.582 25.2L163.28 24.4558L163.273 24.4664L163.268 24.4771L164.582 25.2ZM163.622 32.64V34.14H165.233L165.118 32.5331L163.622 32.64ZM137.822 32.64L136.323 32.5916L136.273 34.14H137.822V32.64ZM142.622 14.28L141.355 13.4774L141.35 13.485L141.345 13.4927L142.622 14.28ZM154.382 3.72L153.748 2.36072L153.748 2.36072L154.382 3.72ZM192.662 7.79999L191.575 8.83404L191.584 8.84302L191.592 8.85185L192.662 7.79999ZM192.062 49.44L190.851 48.5553L190.849 48.5577L192.062 49.44ZM172.742 67.32L171.943 66.0502L167.539 68.82H172.742V67.32ZM200.222 67.32H201.722V65.82H200.222V67.32ZM200.222 88.8V90.3H201.722V88.8H200.222ZM138.182 88.8H136.682V90.3H138.182V88.8ZM139.079 69.9621C149.836 61.9344 158.386 54.6401 164.702 48.0805L162.541 45.9995C156.378 52.3999 147.968 59.5856 137.285 67.5579L139.079 69.9621ZM164.709 48.0738C171.063 41.3934 174.482 34.9187 174.482 28.68H171.482C171.482 33.8013 168.661 39.5666 162.535 46.0062L164.709 48.0738ZM174.482 28.68C174.482 26.5487 173.994 24.6743 172.807 23.2711L170.517 25.2089C171.089 25.8857 171.482 26.9713 171.482 28.68H174.482ZM172.851 23.3254C171.755 21.9008 170.228 21.18 168.422 21.18V24.18C169.336 24.18 169.969 24.4991 170.473 25.1546L172.851 23.3254ZM168.422 21.18C166.163 21.18 164.441 22.4239 163.28 24.4558L165.884 25.9442C166.643 24.6161 167.481 24.18 168.422 24.18V21.18ZM163.268 24.4771C162.173 26.4663 161.88 29.3071 162.126 32.7469L165.118 32.5331C164.884 29.2529 165.23 27.1337 165.896 25.9229L163.268 24.4771ZM163.622 31.14H137.822V34.14H163.622V31.14ZM139.321 32.6884C139.555 25.4287 141.113 19.5844 143.899 15.0673L141.345 13.4927C138.211 18.5756 136.568 24.9713 136.323 32.5916L139.321 32.6884ZM143.889 15.0826C146.787 10.5064 150.495 7.18913 155.016 5.07927L153.748 2.36072C148.669 4.73086 144.536 8.45355 141.355 13.4774L143.889 15.0826ZM155.016 5.07927C159.601 2.93984 164.662 1.86 170.222 1.86V-1.14C164.262 -1.14 158.763 0.0201503 153.748 2.36072L155.016 5.07927ZM170.222 1.86C180.254 1.86 187.253 4.29207 191.575 8.83404L193.748 6.76595C188.631 1.38792 180.67 -1.14 170.222 -1.14V1.86ZM191.592 8.85185C196.082 13.4161 198.362 19.3012 198.362 26.64H201.362C201.362 18.6188 198.842 11.9439 193.731 6.74813L191.592 8.85185ZM198.362 26.64C198.362 34.3727 195.881 41.6675 190.851 48.5553L193.273 50.3247C198.643 42.9725 201.362 35.0673 201.362 26.64H198.362ZM190.849 48.5577C185.847 55.4353 179.55 61.2664 171.943 66.0502L173.54 68.5898C181.453 63.6136 188.037 57.5247 193.275 50.3223L190.849 48.5577ZM172.742 68.82H200.222V65.82H172.742V68.82ZM198.722 67.32V88.8H201.722V67.32H198.722ZM200.222 87.3H138.182V90.3H200.222V87.3ZM139.682 88.8V68.76H136.682V88.8H139.682ZM204.231 76.8H202.731V78.3H204.231V76.8ZM204.231 54.6L203.002 53.7388L202.731 54.1265V54.6H204.231ZM239.991 3.6V2.1H239.21L238.762 2.73883L239.991 3.6ZM268.671 3.6H270.171V2.1H268.671V3.6ZM268.671 53.76H267.171V55.26H268.671V53.76ZM277.311 53.76H278.811V52.26H277.311V53.76ZM277.311 76.8V78.3H278.811V76.8H277.311ZM268.671 76.8V75.3H267.171V76.8H268.671ZM268.671 90V91.5H270.171V90H268.671ZM241.791 90H240.291V91.5H241.791V90ZM241.791 76.8H243.291V75.3H241.791V76.8ZM243.951 33.96H245.451V28.9294L242.696 33.1385L243.951 33.96ZM230.991 53.76L229.736 52.9385L228.216 55.26H230.991V53.76ZM243.951 53.76V55.26H245.451V53.76H243.951ZM205.731 76.8V54.6H202.731V76.8H205.731ZM205.459 55.4612L241.219 4.46116L238.762 2.73883L203.002 53.7388L205.459 55.4612ZM239.991 5.1H268.671V2.1H239.991V5.1ZM267.171 3.6V53.76H270.171V3.6H267.171ZM268.671 55.26H277.311V52.26H268.671V55.26ZM275.811 53.76V76.8H278.811V53.76H275.811ZM277.311 75.3H268.671V78.3H277.311V75.3ZM267.171 76.8V90H270.171V76.8H267.171ZM268.671 88.5H241.791V91.5H268.671V88.5ZM243.291 90V76.8H240.291V90H243.291ZM241.791 75.3H204.231V78.3H241.791V75.3ZM242.696 33.1385L229.736 52.9385L232.246 54.5815L245.206 34.7815L242.696 33.1385ZM230.991 55.26H243.951V52.26H230.991V55.26ZM245.451 53.76V33.96H242.451V53.76H245.451Z" fill="url(#paint0_linear_3514_22073)" mask="url(#path-1-inside-1_3514_22073)"/>
<defs>
<linearGradient id="paint0_linear_3514_22073" x1="5.69061" y1="83.4345" x2="260.129" y2="81.6243" gradientUnits="userSpaceOnUse">
<stop stop-color="#796688"/>
<stop offset="1" stop-color="#FA97DB"/>
</linearGradient>
</defs>
</svg>
