<svg width="64" height="64" viewBox="0 0 64 64" fill="none" xmlns="http://www.w3.org/2000/svg">
<path d="M58.0465 30.1872C57.236 28.8802 55.8037 28.099 54.2151 28.099H18.844C17.0907 28.099 15.496 29.0873 14.7803 30.6177L5.4248 50.233C5.778 51.6693 7.11955 52.7423 8.71745 52.7423H46.3497C47.9586 52.7423 49.4291 51.8325 50.1477 50.3929L58.2341 34.1853C58.8725 32.9028 58.8017 31.4083 58.0465 30.1872Z" fill="#0068FF"/>
<path d="M12.8749 27.5995C13.5899 26.0695 15.1849 25.0808 16.9386 25.0808H50.2464V20.8206C50.2464 19.0644 48.7648 17.6354 46.944 17.6354H27.5226C27.4941 17.6354 27.4745 17.628 27.4672 17.6227L23.9911 12.7623C23.3754 11.9001 22.3586 11.3854 21.2721 11.3854H8.63623C6.81454 11.3854 5.33301 12.8144 5.33301 14.5706V43.4115L12.8749 27.5995Z" fill="#549AFF"/>
</svg>
