<svg width="166" height="24" viewBox="0 0 166 24" fill="none" xmlns="http://www.w3.org/2000/svg">
<path d="M13.5314 0.370175C7.32019 0.370175 0 3.14638 0 12.1786C0 21.2107 7.32019 23.9869 13.5314 23.9869H20.371V12.1416H15.7866V19.4339H13.5314C7.61604 19.4339 4.88025 16.8426 4.88025 12.1416C4.88025 8.25483 7.57902 4.92325 14.3447 4.92325H20.371V0.370175H13.5314Z" fill="white"/>
<path d="M28.3874 9.21722C28.3874 6.55209 30.3099 4.55307 33.5633 4.55307C36.8168 4.55307 38.7763 6.66299 38.7763 9.66135V12.9189H28.3874V9.21722ZM28.3874 23.9868V17.509H38.7763V23.9868H43.3607V9.32829C43.3607 6.70002 42.4733 4.51605 40.6617 2.70233C38.8501 0.888435 36.4841 0 33.5633 0C30.7166 0 28.3504 0.888435 26.5388 2.70233C24.7272 4.51605 23.803 6.70002 23.803 9.32829V23.9868H28.3874Z" fill="white"/>
<path d="M61.659 23.9869V19.4338H51.3769V0.370142H46.7925V23.9869H61.659Z" fill="white"/>
<path d="M68.6112 9.22218C68.6112 6.55706 70.5335 4.55803 73.7869 4.55803C77.0404 4.55803 79.0001 6.66813 79.0001 9.66649V12.9238H68.6112V9.22218ZM68.6112 23.992V17.5139H79.0001V23.992H83.5841V9.33326C83.5841 6.70516 82.6969 4.52101 80.8855 2.70729C79.0738 0.893399 76.7075 0.00496621 73.7869 0.00496621C70.9401 0.00496621 68.5738 0.893399 66.7626 2.70729C64.9507 4.52101 64.0266 6.70516 64.0266 9.33326V23.992H68.6112Z" fill="white"/>
<path d="M107.044 0.370129H101.579L96.4597 8.48637L91.3406 0.370129H85.8756L93.3232 12.1793L85.8756 23.9885H91.3406L96.4597 15.8722L101.579 23.9885H107.044L99.596 12.1793L107.044 0.370129Z" fill="white"/>
<path d="M115.841 0.383237C110.184 0.383237 108.188 3.60375 108.188 7.23136C108.188 10.5998 109.703 14.2276 115.064 14.2276H118.355C120.721 14.2276 122.015 14.6347 122.015 16.8187C122.015 18.7806 120.721 19.4469 118.355 19.4469H109.223V24H118.355C124.566 24 126.415 21.5568 126.415 16.9668C126.415 13.5613 124.973 9.89648 118.651 9.89648H115.582C113.622 9.89648 112.587 9.3783 112.587 7.49053C112.587 5.75069 113.622 4.93631 115.619 4.93631H124.566V0.383237H115.841Z" fill="white"/>
<path d="M147.488 0.341525H142.608L136.951 11.8538L131.295 0.341525H126.415L134.733 16.2588V23.9583H139.317V16.2588L147.488 0.341525Z" fill="white"/>
<path d="M155.25 0.37094C149.593 0.37094 147.597 3.59145 147.597 7.21906C147.597 10.5877 149.113 14.2153 154.473 14.2153H157.764C160.13 14.2153 161.424 14.6224 161.424 16.8064C161.424 18.7684 160.13 19.4346 157.764 19.4346H148.632V23.9877H157.764C163.975 23.9877 165.824 21.5446 165.824 16.9545C165.824 13.549 164.381 9.88418 158.06 9.88418H154.991C153.032 9.88418 151.996 9.366 151.996 7.47824C151.996 5.73839 153.032 4.92401 155.028 4.92401H163.975V0.37094H155.25Z" fill="white"/>
</svg>
