<svg width="48" height="48" viewBox="0 0 48 48" fill="none" xmlns="http://www.w3.org/2000/svg">
<path d="M43.8259 14.212L40.7399 31.72C39.9959 35.936 37.5619 37.74 33.4739 37.178C33.3179 37.156 33.1759 37.156 33.0159 37.128L19.8839 34.814C15.5079 34.042 13.7079 31.4673 14.4839 27.09L17.1619 11.858L17.5619 9.58196C18.3339 5.2033 20.9086 3.4033 25.2859 4.18196L38.4159 6.49596C42.7959 7.26263 44.5993 9.83463 43.8259 14.212ZM31.1079 27.8C31.1422 27.6059 31.1378 27.4069 31.0951 27.2145C31.0524 27.0221 30.9722 26.84 30.8591 26.6785C30.746 26.5171 30.6022 26.3796 30.4359 26.2738C30.2696 26.168 30.0841 26.096 29.8899 26.062L21.6899 24.614C21.2979 24.545 20.8946 24.6346 20.5687 24.863C20.2427 25.0914 20.0209 25.44 19.9519 25.832C19.883 26.224 19.9725 26.6273 20.201 26.9532C20.4294 27.2792 20.7779 27.501 21.1699 27.57L29.3699 29.016C29.4557 29.0319 29.5427 29.0399 29.6299 29.04C29.9828 29.0401 30.3244 28.9159 30.5947 28.6891C30.865 28.4623 31.0468 28.1475 31.1079 27.8ZM37.1999 22.07C37.2342 21.8759 37.2298 21.6769 37.1871 21.4845C37.1444 21.2921 37.0642 21.11 36.9511 20.9485C36.838 20.7871 36.6942 20.6496 36.5279 20.5438C36.3616 20.438 36.1761 20.366 35.9819 20.332L22.8459 18.016C22.4579 17.9555 22.0616 18.0496 21.7422 18.2781C21.4228 18.5066 21.2058 18.8513 21.1377 19.238C21.0696 19.6248 21.1559 20.0228 21.3781 20.3467C21.6003 20.6705 21.9406 20.8943 22.3259 20.97L35.4579 23.286C35.5437 23.3012 35.6308 23.3086 35.7179 23.308C36.0712 23.3092 36.4135 23.1856 36.6846 22.9592C36.9557 22.7327 37.1382 22.4178 37.1999 22.07ZM38.5999 15.546C38.6342 15.3519 38.6298 15.1529 38.5871 14.9605C38.5444 14.7681 38.4642 14.586 38.3511 14.4245C38.238 14.2631 38.0942 14.1256 37.9279 14.0198C37.7616 13.914 37.5761 13.842 37.3819 13.808L24.2459 11.494C23.8579 11.4335 23.4616 11.5276 23.1422 11.7561C22.8228 11.9846 22.6058 12.3293 22.5377 12.716C22.4696 13.1028 22.5559 13.5008 22.7781 13.8247C23.0003 14.1485 23.3406 14.3723 23.7259 14.448L36.8579 16.764C36.9444 16.7791 37.0321 16.7865 37.1199 16.786C37.4732 16.787 37.8155 16.6631 38.0864 16.4362C38.3572 16.2093 38.5391 15.894 38.5999 15.546Z" fill="#7D2BF2"/>
<path d="M30.52 40.784C29.7557 41.1333 28.9488 41.3808 28.12 41.52L14.98 43.82C10.6 44.6 8.02668 42.8 7.26002 38.42L4.18001 20.92C3.39335 16.54 5.19201 13.96 9.57602 13.18L13.176 12.548C13.2712 12.531 13.369 12.5373 13.4612 12.5663C13.5534 12.5953 13.6373 12.6461 13.7056 12.7144C13.7739 12.7828 13.8248 12.8666 13.8537 12.9588C13.8827 13.051 13.889 13.1489 13.872 13.244L11.516 26.56C10.456 32.62 13.316 36.7 19.356 37.76C19.356 37.76 29.794 39.594 30.332 39.698C31 39.818 31.102 40.526 30.52 40.784Z" fill="#C39DF9"/>
</svg>
