<svg width="1912" height="1106" viewBox="0 0 1912 1106" fill="none" xmlns="http://www.w3.org/2000/svg">
<path opacity="0.08" d="M956 469.5C995.969 469.5 1032.13 478.886 1058.28 494.036C1084.44 509.193 1100.5 530.057 1100.5 553C1100.5 575.943 1084.44 596.807 1058.28 611.964C1032.13 627.114 995.969 636.5 956 636.5C916.031 636.5 879.871 627.114 853.72 611.964C827.556 596.807 811.5 575.943 811.5 553C811.5 530.057 827.556 509.193 853.72 494.036C879.871 478.886 916.031 469.5 956 469.5Z" stroke="#3C1B00"/>
<path opacity="0.08" d="M956 386.5C1036.29 386.5 1108.95 405.177 1161.52 435.347C1214.11 465.525 1246.5 507.14 1246.5 553C1246.5 598.86 1214.11 640.475 1161.52 670.653C1108.95 700.823 1036.29 719.5 956 719.5C875.714 719.5 803.053 700.823 750.481 670.653C697.895 640.475 665.5 598.86 665.5 553C665.5 507.14 697.895 465.525 750.481 435.347C803.053 405.177 875.714 386.5 956 386.5Z" stroke="#3C1B00"/>
<path opacity="0.08" d="M956 286.5C1084.33 286.5 1200.5 316.369 1284.56 364.636C1368.63 412.911 1420.5 479.526 1420.5 553C1420.5 626.474 1368.63 693.089 1284.56 741.364C1200.5 789.631 1084.33 819.5 956 819.5C827.665 819.5 711.504 789.631 627.444 741.364C543.371 693.089 491.5 626.474 491.5 553C491.5 479.526 543.371 412.911 627.444 364.636C711.504 316.369 827.665 286.5 956 286.5Z" stroke="#3C1B00"/>
<path opacity="0.08" d="M956 144.5C1152.27 144.5 1329.93 190.263 1458.5 264.227C1587.09 338.198 1666.5 440.313 1666.5 553C1666.5 665.687 1587.09 767.802 1458.5 841.773C1329.93 915.737 1152.27 961.5 956 961.5C759.734 961.5 582.073 915.737 453.496 841.773C324.906 767.802 245.5 665.687 245.5 553C245.5 440.313 324.906 338.198 453.496 264.227C582.073 190.263 759.734 144.5 956 144.5Z" stroke="#3C1B00"/>
<path opacity="0.08" d="M956 0.50008C1221.03 0.500069 1460.94 62.381 1634.57 162.403C1808.22 262.433 1915.5 400.548 1915.5 553C1915.5 705.452 1808.22 843.567 1634.57 943.597C1460.94 1043.62 1221.03 1105.5 956 1105.5C690.975 1105.5 451.064 1043.62 277.427 943.597C103.777 843.567 -3.50002 705.452 -3.50002 553C-3.50003 400.548 103.776 262.433 277.427 162.403C451.064 62.3811 690.975 0.500092 956 0.50008Z" stroke="#3C1B00"/>
</svg>
