<svg width="268" height="136" viewBox="0 0 268 136" fill="none" xmlns="http://www.w3.org/2000/svg">
<g opacity="0.4">
<mask id="path-1-inside-1_1442_14091" fill="white">
<path d="M167.5 118.326C167.5 108.99 174.999 101.422 184.25 101.422C193.501 101.422 201 108.99 201 118.326C201 127.661 193.501 135.229 184.25 135.229C174.999 135.229 167.5 127.661 167.5 118.326Z"/>
<path d="M167.5 50.711C167.5 41.3754 174.999 33.8074 184.25 33.8074C193.501 33.8074 201 41.3754 201 50.711C201 60.0467 193.501 67.6147 184.25 67.6147C174.999 67.6147 167.5 60.0467 167.5 50.711Z"/>
<path d="M234.5 118.326C234.5 108.99 241.999 101.422 251.25 101.422C260.501 101.422 268 108.99 268 118.326C268 127.661 260.501 135.229 251.25 135.229C241.999 135.229 234.5 127.661 234.5 118.326Z"/>
<path d="M234.5 50.711C234.5 41.3754 241.999 33.8073 251.25 33.8073C260.501 33.8073 268 41.3754 268 50.711C268 60.0467 260.501 67.6147 251.25 67.6147C241.999 67.6147 234.5 60.0467 234.5 50.711Z"/>
<path d="M167.5 84.5184C167.5 75.1827 174.999 67.6147 184.25 67.6147C193.501 67.6147 201 75.1827 201 84.5184C201 93.854 193.501 101.422 184.25 101.422C174.999 101.422 167.5 93.854 167.5 84.5184Z"/>
<path d="M167.5 16.9037C167.5 7.56804 174.999 6.66605e-06 184.25 5.85733e-06C193.501 5.0486e-06 201 7.56804 201 16.9037C201 26.2393 193.501 33.8074 184.25 33.8074C174.999 33.8074 167.5 26.2393 167.5 16.9037Z"/>
<path d="M234.5 84.5184C234.5 75.1827 241.999 67.6147 251.25 67.6147C260.501 67.6147 268 75.1827 268 84.5184C268 93.854 260.501 101.422 251.25 101.422C241.999 101.422 234.5 93.854 234.5 84.5184Z"/>
<path d="M234.5 16.9037C234.5 7.56803 241.999 8.08728e-07 251.25 0C260.501 -8.08728e-07 268 7.56803 268 16.9037C268 26.2393 260.501 33.8073 251.25 33.8073C241.999 33.8073 234.5 26.2393 234.5 16.9037Z"/>
<path d="M134 118.326C134 108.99 141.499 101.422 150.75 101.422C160.001 101.422 167.5 108.99 167.5 118.326C167.5 127.661 160.001 135.229 150.75 135.229C141.499 135.229 134 127.661 134 118.326Z"/>
<path d="M134 50.711C134 41.3754 141.499 33.8074 150.75 33.8074C160.001 33.8074 167.5 41.3754 167.5 50.711C167.5 60.0467 160.001 67.6147 150.75 67.6147C141.499 67.6147 134 60.0467 134 50.711Z"/>
<path d="M201 118.326C201 108.99 208.499 101.422 217.75 101.422C227.001 101.422 234.5 108.99 234.5 118.326C234.5 127.661 227.001 135.229 217.75 135.229C208.499 135.229 201 127.661 201 118.326Z"/>
<path d="M201 50.711C201 41.3754 208.499 33.8073 217.75 33.8073C227.001 33.8073 234.5 41.3754 234.5 50.711C234.5 60.0467 227.001 67.6147 217.75 67.6147C208.499 67.6147 201 60.0467 201 50.711Z"/>
<path d="M134 84.5184C134 75.1827 141.499 67.6147 150.75 67.6147C160.001 67.6147 167.5 75.1827 167.5 84.5184C167.5 93.854 160.001 101.422 150.75 101.422C141.499 101.422 134 93.854 134 84.5184Z"/>
<path d="M134 16.9037C134 7.56804 141.499 9.59472e-06 150.75 8.78599e-06C160.001 7.97726e-06 167.5 7.56804 167.5 16.9037C167.5 26.2393 160.001 33.8074 150.75 33.8074C141.499 33.8074 134 26.2393 134 16.9037Z"/>
<path d="M201 84.5184C201 75.1827 208.499 67.6147 217.75 67.6147C227.001 67.6147 234.5 75.1827 234.5 84.5184C234.5 93.854 227.001 101.422 217.75 101.422C208.499 101.422 201 93.854 201 84.5184Z"/>
<path d="M201 16.9037C201 7.56804 208.499 3.73739e-06 217.75 2.92866e-06C227.001 2.11994e-06 234.5 7.56803 234.5 16.9037C234.5 26.2393 227.001 33.8073 217.75 33.8073C208.499 33.8073 201 26.2393 201 16.9037Z"/>
<path d="M33.5 118.326C33.5 108.99 40.9992 101.422 50.25 101.422C59.5008 101.422 67 108.99 67 118.326C67 127.661 59.5008 135.229 50.25 135.229C40.9992 135.229 33.5 127.661 33.5 118.326Z"/>
<path d="M33.5 50.711C33.5 41.3754 40.9992 33.8074 50.25 33.8074C59.5008 33.8074 67 41.3754 67 50.711C67 60.0467 59.5008 67.6147 50.25 67.6147C40.9992 67.6147 33.5 60.0467 33.5 50.711Z"/>
<path d="M100.5 118.326C100.5 108.99 107.999 101.422 117.25 101.422C126.501 101.422 134 108.99 134 118.326C134 127.661 126.501 135.229 117.25 135.229C107.999 135.229 100.5 127.661 100.5 118.326Z"/>
<path d="M100.5 50.711C100.5 41.3754 107.999 33.8073 117.25 33.8073C126.501 33.8073 134 41.3754 134 50.711C134 60.0467 126.501 67.6147 117.25 67.6147C107.999 67.6147 100.5 60.0467 100.5 50.711Z"/>
<path d="M33.5 84.5184C33.5 75.1827 40.9992 67.6147 50.25 67.6147C59.5008 67.6147 67 75.1827 67 84.5184C67 93.854 59.5008 101.422 50.25 101.422C40.9992 101.422 33.5 93.854 33.5 84.5184Z"/>
<path d="M33.5 16.9037C33.5 7.56804 40.9992 6.66605e-06 50.25 5.85733e-06C59.5008 5.0486e-06 67 7.56804 67 16.9037C67 26.2393 59.5008 33.8074 50.25 33.8074C40.9992 33.8074 33.5 26.2393 33.5 16.9037Z"/>
<path d="M100.5 84.5184C100.5 75.1827 107.999 67.6147 117.25 67.6147C126.501 67.6147 134 75.1827 134 84.5184C134 93.854 126.501 101.422 117.25 101.422C107.999 101.422 100.5 93.854 100.5 84.5184Z"/>
<path d="M100.5 16.9037C100.5 7.56803 107.999 8.08728e-07 117.25 0C126.501 -8.08728e-07 134 7.56804 134 16.9037C134 26.2393 126.501 33.8073 117.25 33.8073C107.999 33.8073 100.5 26.2393 100.5 16.9037Z"/>
<path d="M8.8666e-06 118.326C8.05045e-06 108.99 7.49924 101.422 16.75 101.422C26.0008 101.422 33.5 108.99 33.5 118.326C33.5 127.661 26.0008 135.229 16.75 135.229C7.49924 135.229 9.68274e-06 127.661 8.8666e-06 118.326Z"/>
<path d="M2.95553e-06 50.711C2.13938e-06 41.3754 7.49923 33.8074 16.75 33.8074C26.0008 33.8074 33.5 41.3754 33.5 50.711C33.5 60.0467 26.0008 67.6147 16.75 67.6147C7.49923 67.6147 3.77168e-06 60.0467 2.95553e-06 50.711Z"/>
<path d="M67 118.326C67 108.99 74.4992 101.422 83.75 101.422C93.0008 101.422 100.5 108.99 100.5 118.326C100.5 127.661 93.0008 135.229 83.75 135.229C74.4992 135.229 67 127.661 67 118.326Z"/>
<path d="M67 50.711C67 41.3754 74.4992 33.8073 83.75 33.8073C93.0008 33.8073 100.5 41.3754 100.5 50.711C100.5 60.0467 93.0008 67.6147 83.75 67.6147C74.4992 67.6147 67 60.0467 67 50.711Z"/>
<path d="M5.91106e-06 84.5184C5.09492e-06 75.1827 7.49923 67.6147 16.75 67.6147C26.0008 67.6147 33.5 75.1827 33.5 84.5184C33.5 93.854 26.0008 101.422 16.75 101.422C7.49924 101.422 6.72721e-06 93.854 5.91106e-06 84.5184Z"/>
<path d="M0 16.9037C-8.16148e-07 7.56804 7.49923 9.59472e-06 16.75 8.78599e-06C26.0008 7.97726e-06 33.5 7.56804 33.5 16.9037C33.5 26.2393 26.0008 33.8074 16.75 33.8074C7.49923 33.8074 8.16148e-07 26.2393 0 16.9037Z"/>
<path d="M67 84.5184C67 75.1827 74.4992 67.6147 83.75 67.6147C93.0008 67.6147 100.5 75.1827 100.5 84.5184C100.5 93.854 93.0008 101.422 83.75 101.422C74.4992 101.422 67 93.854 67 84.5184Z"/>
<path d="M67 16.9037C67 7.56804 74.4992 3.73739e-06 83.75 2.92866e-06C93.0008 2.11994e-06 100.5 7.56803 100.5 16.9037C100.5 26.2393 93.0008 33.8073 83.75 33.8073C74.4992 33.8073 67 26.2393 67 16.9037Z"/>
</mask>
<path d="M168.5 118.326C168.5 109.534 175.56 102.422 184.25 102.422V100.422C174.438 100.422 166.5 108.446 166.5 118.326H168.5ZM184.25 102.422C192.94 102.422 200 109.534 200 118.326H202C202 108.446 194.062 100.422 184.25 100.422V102.422ZM200 118.326C200 127.118 192.94 134.229 184.25 134.229V136.229C194.062 136.229 202 128.205 202 118.326H200ZM184.25 134.229C175.56 134.229 168.5 127.118 168.5 118.326H166.5C166.5 128.205 174.438 136.229 184.25 136.229V134.229ZM168.5 50.711C168.5 41.919 175.56 34.8074 184.25 34.8074V32.8074C174.438 32.8074 166.5 40.8317 166.5 50.711H168.5ZM184.25 34.8074C192.94 34.8074 200 41.919 200 50.711H202C202 40.8317 194.062 32.8074 184.25 32.8074V34.8074ZM200 50.711C200 59.503 192.94 66.6147 184.25 66.6147V68.6147C194.062 68.6147 202 60.5903 202 50.711H200ZM184.25 66.6147C175.56 66.6147 168.5 59.503 168.5 50.711H166.5C166.5 60.5903 174.438 68.6147 184.25 68.6147V66.6147ZM235.5 118.326C235.5 109.534 242.56 102.422 251.25 102.422V100.422C241.438 100.422 233.5 108.446 233.5 118.326H235.5ZM251.25 102.422C259.94 102.422 267 109.534 267 118.326H269C269 108.446 261.062 100.422 251.25 100.422V102.422ZM267 118.326C267 127.118 259.94 134.229 251.25 134.229V136.229C261.062 136.229 269 128.205 269 118.326H267ZM251.25 134.229C242.56 134.229 235.5 127.118 235.5 118.326H233.5C233.5 128.205 241.438 136.229 251.25 136.229V134.229ZM235.5 50.711C235.5 41.919 242.56 34.8073 251.25 34.8073V32.8073C241.438 32.8073 233.5 40.8317 233.5 50.711H235.5ZM251.25 34.8073C259.94 34.8073 267 41.919 267 50.711H269C269 40.8317 261.062 32.8073 251.25 32.8073V34.8073ZM267 50.711C267 59.503 259.94 66.6147 251.25 66.6147V68.6147C261.062 68.6147 269 60.5903 269 50.711H267ZM251.25 66.6147C242.56 66.6147 235.5 59.503 235.5 50.711H233.5C233.5 60.5903 241.438 68.6147 251.25 68.6147V66.6147ZM168.5 84.5184C168.5 75.7264 175.56 68.6147 184.25 68.6147V66.6147C174.438 66.6147 166.5 74.6391 166.5 84.5184H168.5ZM184.25 68.6147C192.94 68.6147 200 75.7264 200 84.5184H202C202 74.6391 194.062 66.6147 184.25 66.6147V68.6147ZM200 84.5184C200 93.3103 192.94 100.422 184.25 100.422V102.422C194.062 102.422 202 94.3977 202 84.5184H200ZM184.25 100.422C175.56 100.422 168.5 93.3103 168.5 84.5184H166.5C166.5 94.3977 174.438 102.422 184.25 102.422V100.422ZM168.5 16.9037C168.5 8.11169 175.56 1.00001 184.25 1.00001V-0.999994C174.438 -0.999993 166.5 7.02438 166.5 16.9037H168.5ZM184.25 1.00001C192.94 1.00001 200 8.11169 200 16.9037H202C202 7.02438 194.062 -0.999995 184.25 -0.999994V1.00001ZM200 16.9037C200 25.6957 192.94 32.8074 184.25 32.8074V34.8074C194.062 34.8074 202 26.783 202 16.9037H200ZM184.25 32.8074C175.56 32.8074 168.5 25.6957 168.5 16.9037H166.5C166.5 26.783 174.438 34.8074 184.25 34.8074V32.8074ZM235.5 84.5184C235.5 75.7264 242.56 68.6147 251.25 68.6147V66.6147C241.438 66.6147 233.5 74.6391 233.5 84.5184H235.5ZM251.25 68.6147C259.94 68.6147 267 75.7264 267 84.5184H269C269 74.6391 261.062 66.6147 251.25 66.6147V68.6147ZM267 84.5184C267 93.3103 259.94 100.422 251.25 100.422V102.422C261.062 102.422 269 94.3977 269 84.5184H267ZM251.25 100.422C242.56 100.422 235.5 93.3103 235.5 84.5184H233.5C233.5 94.3977 241.438 102.422 251.25 102.422V100.422ZM235.5 16.9037C235.5 8.11169 242.56 1 251.25 1V-1C241.438 -0.999999 233.5 7.02438 233.5 16.9037H235.5ZM251.25 1C259.94 0.999999 267 8.11168 267 16.9037H269C269 7.02437 261.062 -1 251.25 -1V1ZM267 16.9037C267 25.6957 259.94 32.8073 251.25 32.8073V34.8073C261.062 34.8073 269 26.783 269 16.9037H267ZM251.25 32.8073C242.56 32.8073 235.5 25.6957 235.5 16.9037H233.5C233.5 26.783 241.438 34.8073 251.25 34.8073V32.8073ZM135 118.326C135 109.534 142.06 102.422 150.75 102.422V100.422C140.938 100.422 133 108.446 133 118.326H135ZM150.75 102.422C159.44 102.422 166.5 109.534 166.5 118.326H168.5C168.5 108.446 160.562 100.422 150.75 100.422V102.422ZM166.5 118.326C166.5 127.118 159.44 134.229 150.75 134.229V136.229C160.562 136.229 168.5 128.205 168.5 118.326H166.5ZM150.75 134.229C142.06 134.229 135 127.118 135 118.326H133C133 128.205 140.938 136.229 150.75 136.229V134.229ZM135 50.711C135 41.919 142.06 34.8074 150.75 34.8074V32.8074C140.938 32.8074 133 40.8317 133 50.711H135ZM150.75 34.8074C159.44 34.8074 166.5 41.919 166.5 50.711H168.5C168.5 40.8317 160.562 32.8074 150.75 32.8074V34.8074ZM166.5 50.711C166.5 59.503 159.44 66.6147 150.75 66.6147V68.6147C160.562 68.6147 168.5 60.5903 168.5 50.711H166.5ZM150.75 66.6147C142.06 66.6147 135 59.503 135 50.711H133C133 60.5903 140.938 68.6147 150.75 68.6147V66.6147ZM202 118.326C202 109.534 209.06 102.422 217.75 102.422V100.422C207.938 100.422 200 108.446 200 118.326H202ZM217.75 102.422C226.44 102.422 233.5 109.534 233.5 118.326H235.5C235.5 108.446 227.562 100.422 217.75 100.422V102.422ZM233.5 118.326C233.5 127.118 226.44 134.229 217.75 134.229V136.229C227.562 136.229 235.5 128.205 235.5 118.326H233.5ZM217.75 134.229C209.06 134.229 202 127.118 202 118.326H200C200 128.205 207.938 136.229 217.75 136.229V134.229ZM202 50.711C202 41.919 209.06 34.8073 217.75 34.8073V32.8073C207.938 32.8073 200 40.8317 200 50.711H202ZM217.75 34.8073C226.44 34.8073 233.5 41.919 233.5 50.711H235.5C235.5 40.8317 227.562 32.8073 217.75 32.8073V34.8073ZM233.5 50.711C233.5 59.503 226.44 66.6147 217.75 66.6147V68.6147C227.562 68.6147 235.5 60.5903 235.5 50.711H233.5ZM217.75 66.6147C209.06 66.6147 202 59.503 202 50.711H200C200 60.5903 207.938 68.6147 217.75 68.6147V66.6147ZM135 84.5184C135 75.7264 142.06 68.6147 150.75 68.6147V66.6147C140.938 66.6147 133 74.6391 133 84.5184H135ZM150.75 68.6147C159.44 68.6147 166.5 75.7264 166.5 84.5184H168.5C168.5 74.6391 160.562 66.6147 150.75 66.6147V68.6147ZM166.5 84.5184C166.5 93.3103 159.44 100.422 150.75 100.422V102.422C160.562 102.422 168.5 94.3977 168.5 84.5184H166.5ZM150.75 100.422C142.06 100.422 135 93.3103 135 84.5184H133C133 94.3977 140.938 102.422 150.75 102.422V100.422ZM135 16.9037C135 8.1117 142.06 1.00001 150.75 1.00001V-0.999991C140.938 -0.99999 133 7.02439 133 16.9037H135ZM150.75 1.00001C159.44 1.00001 166.5 8.11169 166.5 16.9037H168.5C168.5 7.02438 160.562 -0.999992 150.75 -0.999991V1.00001ZM166.5 16.9037C166.5 25.6957 159.44 32.8074 150.75 32.8074V34.8074C160.562 34.8074 168.5 26.783 168.5 16.9037H166.5ZM150.75 32.8074C142.06 32.8074 135 25.6957 135 16.9037H133C133 26.783 140.938 34.8074 150.75 34.8074V32.8074ZM202 84.5184C202 75.7264 209.06 68.6147 217.75 68.6147V66.6147C207.938 66.6147 200 74.6391 200 84.5184H202ZM217.75 68.6147C226.44 68.6147 233.5 75.7264 233.5 84.5184H235.5C235.5 74.6391 227.562 66.6147 217.75 66.6147V68.6147ZM233.5 84.5184C233.5 93.3103 226.44 100.422 217.75 100.422V102.422C227.562 102.422 235.5 94.3977 235.5 84.5184H233.5ZM217.75 100.422C209.06 100.422 202 93.3103 202 84.5184H200C200 94.3977 207.938 102.422 217.75 102.422V100.422ZM202 16.9037C202 8.11169 209.06 1 217.75 1V-0.999997C207.938 -0.999996 200 7.02438 200 16.9037H202ZM217.75 1C226.44 1 233.5 8.11169 233.5 16.9037H235.5C235.5 7.02438 227.562 -0.999998 217.75 -0.999997V1ZM233.5 16.9037C233.5 25.6957 226.44 32.8073 217.75 32.8073V34.8073C227.562 34.8073 235.5 26.783 235.5 16.9037H233.5ZM217.75 32.8073C209.06 32.8073 202 25.6957 202 16.9037H200C200 26.783 207.938 34.8073 217.75 34.8073V32.8073ZM34.5 118.326C34.5 109.534 41.5601 102.422 50.25 102.422V100.422C40.4384 100.422 32.5 108.446 32.5 118.326H34.5ZM50.25 102.422C58.9399 102.422 66 109.534 66 118.326H68C68 108.446 60.0616 100.422 50.25 100.422V102.422ZM66 118.326C66 127.118 58.9399 134.229 50.25 134.229V136.229C60.0617 136.229 68 128.205 68 118.326H66ZM50.25 134.229C41.5601 134.229 34.5 127.118 34.5 118.326H32.5C32.5 128.205 40.4384 136.229 50.25 136.229V134.229ZM34.5 50.711C34.5 41.919 41.5601 34.8074 50.25 34.8074V32.8074C40.4384 32.8074 32.5 40.8317 32.5 50.711H34.5ZM50.25 34.8074C58.9399 34.8074 66 41.919 66 50.711H68C68 40.8317 60.0616 32.8074 50.25 32.8074V34.8074ZM66 50.711C66 59.503 58.9399 66.6147 50.25 66.6147V68.6147C60.0616 68.6147 68 60.5903 68 50.711H66ZM50.25 66.6147C41.5601 66.6147 34.5 59.503 34.5 50.711H32.5C32.5 60.5903 40.4384 68.6147 50.25 68.6147V66.6147ZM101.5 118.326C101.5 109.534 108.56 102.422 117.25 102.422V100.422C107.438 100.422 99.5 108.446 99.5 118.326H101.5ZM117.25 102.422C125.94 102.422 133 109.534 133 118.326H135C135 108.446 127.062 100.422 117.25 100.422V102.422ZM133 118.326C133 127.118 125.94 134.229 117.25 134.229V136.229C127.062 136.229 135 128.205 135 118.326H133ZM117.25 134.229C108.56 134.229 101.5 127.118 101.5 118.326H99.5C99.5 128.205 107.438 136.229 117.25 136.229V134.229ZM101.5 50.711C101.5 41.919 108.56 34.8073 117.25 34.8073V32.8073C107.438 32.8073 99.5 40.8317 99.5 50.711H101.5ZM117.25 34.8073C125.94 34.8073 133 41.919 133 50.711H135C135 40.8317 127.062 32.8073 117.25 32.8073V34.8073ZM133 50.711C133 59.503 125.94 66.6147 117.25 66.6147V68.6147C127.062 68.6147 135 60.5903 135 50.711H133ZM117.25 66.6147C108.56 66.6147 101.5 59.503 101.5 50.711H99.5C99.5 60.5903 107.438 68.6147 117.25 68.6147V66.6147ZM34.5 84.5184C34.5 75.7264 41.5601 68.6147 50.25 68.6147V66.6147C40.4384 66.6147 32.5 74.6391 32.5 84.5184H34.5ZM50.25 68.6147C58.9399 68.6147 66 75.7264 66 84.5184H68C68 74.6391 60.0616 66.6147 50.25 66.6147V68.6147ZM66 84.5184C66 93.3103 58.9399 100.422 50.25 100.422V102.422C60.0616 102.422 68 94.3977 68 84.5184H66ZM50.25 100.422C41.5601 100.422 34.5 93.3103 34.5 84.5184H32.5C32.5 94.3977 40.4384 102.422 50.25 102.422V100.422ZM34.5 16.9037C34.5 8.11169 41.5601 1.00001 50.25 1.00001V-0.999994C40.4384 -0.999993 32.5 7.02438 32.5 16.9037H34.5ZM50.25 1.00001C58.9399 1.00001 66 8.11169 66 16.9037H68C68 7.02438 60.0616 -0.999995 50.25 -0.999994V1.00001ZM66 16.9037C66 25.6957 58.9399 32.8074 50.25 32.8074V34.8074C60.0616 34.8074 68 26.783 68 16.9037H66ZM50.25 32.8074C41.5601 32.8074 34.5 25.6957 34.5 16.9037H32.5C32.5 26.783 40.4384 34.8074 50.25 34.8074V32.8074ZM101.5 84.5184C101.5 75.7264 108.56 68.6147 117.25 68.6147V66.6147C107.438 66.6147 99.5 74.6391 99.5 84.5184H101.5ZM117.25 68.6147C125.94 68.6147 133 75.7264 133 84.5184H135C135 74.6391 127.062 66.6147 117.25 66.6147V68.6147ZM133 84.5184C133 93.3103 125.94 100.422 117.25 100.422V102.422C127.062 102.422 135 94.3977 135 84.5184H133ZM117.25 100.422C108.56 100.422 101.5 93.3103 101.5 84.5184H99.5C99.5 94.3977 107.438 102.422 117.25 102.422V100.422ZM101.5 16.9037C101.5 8.11169 108.56 1 117.25 1V-1C107.438 -0.999999 99.5 7.02438 99.5 16.9037H101.5ZM117.25 1C125.94 0.999999 133 8.1117 133 16.9037H135C135 7.02439 127.062 -1 117.25 -1V1ZM133 16.9037C133 25.6957 125.94 32.8073 117.25 32.8073V34.8073C127.062 34.8073 135 26.783 135 16.9037H133ZM117.25 32.8073C108.56 32.8073 101.5 25.6957 101.5 16.9037H99.5C99.5 26.783 107.438 34.8073 117.25 34.8073V32.8073ZM1.00001 118.326C1.00001 109.534 8.06011 102.422 16.75 102.422V100.422C6.93836 100.422 -0.999992 108.446 -0.999991 118.326H1.00001ZM16.75 102.422C25.4399 102.422 32.5 109.534 32.5 118.326H34.5C34.5 108.446 26.5617 100.422 16.75 100.422V102.422ZM32.5 118.326C32.5 127.118 25.4399 134.229 16.75 134.229V136.229C26.5617 136.229 34.5 128.205 34.5 118.326H32.5ZM16.75 134.229C8.06012 134.229 1.00001 127.118 1.00001 118.326H-0.999991C-0.99999 128.205 6.93836 136.229 16.75 136.229V134.229ZM1 50.711C1 41.919 8.06011 34.8074 16.75 34.8074V32.8074C6.93835 32.8074 -0.999998 40.8317 -0.999997 50.711H1ZM16.75 34.8074C25.4399 34.8074 32.5 41.919 32.5 50.711H34.5C34.5 40.8317 26.5616 32.8074 16.75 32.8074V34.8074ZM32.5 50.711C32.5 59.503 25.4399 66.6147 16.75 66.6147V68.6147C26.5616 68.6147 34.5 60.5903 34.5 50.711H32.5ZM16.75 66.6147C8.06011 66.6147 1 59.503 1 50.711H-0.999997C-0.999996 60.5903 6.93836 68.6147 16.75 68.6147V66.6147ZM68 118.326C68 109.534 75.0601 102.422 83.75 102.422V100.422C73.9384 100.422 66 108.446 66 118.326H68ZM83.75 102.422C92.4399 102.422 99.5 109.534 99.5 118.326H101.5C101.5 108.446 93.5617 100.422 83.75 100.422V102.422ZM99.5 118.326C99.5 127.118 92.4399 134.229 83.75 134.229V136.229C93.5617 136.229 101.5 128.205 101.5 118.326H99.5ZM83.75 134.229C75.0601 134.229 68 127.118 68 118.326H66C66 128.205 73.9384 136.229 83.75 136.229V134.229ZM68 50.711C68 41.919 75.0601 34.8073 83.75 34.8073V32.8073C73.9384 32.8073 66 40.8317 66 50.711H68ZM83.75 34.8073C92.4399 34.8073 99.5 41.919 99.5 50.711H101.5C101.5 40.8317 93.5616 32.8073 83.75 32.8073V34.8073ZM99.5 50.711C99.5 59.503 92.4399 66.6147 83.75 66.6147V68.6147C93.5616 68.6147 101.5 60.5903 101.5 50.711H99.5ZM83.75 66.6147C75.0601 66.6147 68 59.503 68 50.711H66C66 60.5903 73.9384 68.6147 83.75 68.6147V66.6147ZM1.00001 84.5184C1.00001 75.7264 8.06011 68.6147 16.75 68.6147V66.6147C6.93836 66.6147 -0.999995 74.6391 -0.999994 84.5184H1.00001ZM16.75 68.6147C25.4399 68.6147 32.5 75.7264 32.5 84.5184H34.5C34.5 74.6391 26.5616 66.6147 16.75 66.6147V68.6147ZM32.5 84.5184C32.5 93.3103 25.4399 100.422 16.75 100.422V102.422C26.5617 102.422 34.5 94.3977 34.5 84.5184H32.5ZM16.75 100.422C8.06011 100.422 1.00001 93.3103 1.00001 84.5184H-0.999994C-0.999993 94.3977 6.93836 102.422 16.75 102.422V100.422ZM1 16.9037C0.999999 8.1117 8.0601 1.00001 16.75 1.00001V-0.999991C6.93835 -0.99999 -1 7.02439 -1 16.9037H1ZM16.75 1.00001C25.4399 1.00001 32.5 8.11169 32.5 16.9037H34.5C34.5 7.02438 26.5616 -0.999992 16.75 -0.999991V1.00001ZM32.5 16.9037C32.5 25.6957 25.4399 32.8074 16.75 32.8074V34.8074C26.5616 34.8074 34.5 26.783 34.5 16.9037H32.5ZM16.75 32.8074C8.06011 32.8074 1 25.6957 1 16.9037H-1C-0.999999 26.783 6.93835 34.8074 16.75 34.8074V32.8074ZM68 84.5184C68 75.7264 75.0601 68.6147 83.75 68.6147V66.6147C73.9384 66.6147 66 74.6391 66 84.5184H68ZM83.75 68.6147C92.4399 68.6147 99.5 75.7264 99.5 84.5184H101.5C101.5 74.6391 93.5616 66.6147 83.75 66.6147V68.6147ZM99.5 84.5184C99.5 93.3103 92.4399 100.422 83.75 100.422V102.422C93.5617 102.422 101.5 94.3977 101.5 84.5184H99.5ZM83.75 100.422C75.0601 100.422 68 93.3103 68 84.5184H66C66 94.3977 73.9384 102.422 83.75 102.422V100.422ZM68 16.9037C68 8.11169 75.0601 1 83.75 1V-0.999997C73.9383 -0.999996 66 7.02438 66 16.9037H68ZM83.75 1C92.4399 1 99.5 8.11169 99.5 16.9037H101.5C101.5 7.02438 93.5616 -0.999998 83.75 -0.999997V1ZM99.5 16.9037C99.5 25.6957 92.4399 32.8073 83.75 32.8073V34.8073C93.5616 34.8073 101.5 26.783 101.5 16.9037H99.5ZM83.75 32.8073C75.0601 32.8073 68 25.6957 68 16.9037H66C66 26.783 73.9384 34.8073 83.75 34.8073V32.8073Z" fill="url(#paint0_linear_1442_14091)" mask="url(#path-1-inside-1_1442_14091)"/>
</g>
<defs>
<linearGradient id="paint0_linear_1442_14091" x1="-146.5" y1="68" x2="146.584" y2="219.857" gradientUnits="userSpaceOnUse">
<stop stop-color="white"/>
<stop offset="1" stop-color="white" stop-opacity="0.05"/>
</linearGradient>
</defs>
</svg>
