<svg width="268" height="136" viewBox="0 0 268 136" fill="none" xmlns="http://www.w3.org/2000/svg">
<g opacity="0.4">
<mask id="path-1-inside-1_2660_12674" fill="white">
<path d="M100.5 118.326C100.5 108.99 93.0008 101.422 83.75 101.422C74.4992 101.422 67 108.99 67 118.326C67 127.661 74.4992 135.229 83.75 135.229C93.0007 135.229 100.5 127.661 100.5 118.326Z"/>
<path d="M100.5 50.711C100.5 41.3754 93.0008 33.8074 83.75 33.8074C74.4992 33.8074 67 41.3754 67 50.711C67 60.0467 74.4992 67.6147 83.75 67.6147C93.0008 67.6147 100.5 60.0467 100.5 50.711Z"/>
<path d="M33.5 118.326C33.5 108.99 26.0008 101.422 16.75 101.422C7.49924 101.422 0 108.99 0 118.326C0 127.661 7.49924 135.229 16.75 135.229C26.0008 135.229 33.5 127.661 33.5 118.326Z"/>
<path d="M33.5 50.711C33.5 41.3754 26.0008 33.8073 16.75 33.8073C7.49924 33.8073 0 41.3754 0 50.711C0 60.0467 7.49924 67.6147 16.75 67.6147C26.0008 67.6147 33.5 60.0467 33.5 50.711Z"/>
<path d="M100.5 84.5184C100.5 75.1827 93.0008 67.6147 83.75 67.6147C74.4992 67.6147 67 75.1827 67 84.5184C67 93.854 74.4992 101.422 83.75 101.422C93.0008 101.422 100.5 93.854 100.5 84.5184Z"/>
<path d="M100.5 16.9037C100.5 7.56804 93.0008 6.66605e-06 83.75 5.85733e-06C74.4992 5.0486e-06 67 7.56804 67 16.9037C67 26.2393 74.4992 33.8074 83.75 33.8074C93.0008 33.8074 100.5 26.2393 100.5 16.9037Z"/>
<path d="M33.5 84.5184C33.5 75.1827 26.0008 67.6147 16.75 67.6147C7.49924 67.6147 0 75.1827 0 84.5184C0 93.854 7.49924 101.422 16.75 101.422C26.0008 101.422 33.5 93.854 33.5 84.5184Z"/>
<path d="M33.5 16.9037C33.5 7.56803 26.0008 8.08728e-07 16.75 0C7.49924 -8.08728e-07 0 7.56803 0 16.9037C0 26.2393 7.49924 33.8073 16.75 33.8073C26.0008 33.8073 33.5 26.2393 33.5 16.9037Z"/>
<path d="M134 118.326C134 108.99 126.501 101.422 117.25 101.422C107.999 101.422 100.5 108.99 100.5 118.326C100.5 127.661 107.999 135.229 117.25 135.229C126.501 135.229 134 127.661 134 118.326Z"/>
<path d="M134 50.711C134 41.3754 126.501 33.8074 117.25 33.8074C107.999 33.8074 100.5 41.3754 100.5 50.711C100.5 60.0467 107.999 67.6147 117.25 67.6147C126.501 67.6147 134 60.0467 134 50.711Z"/>
<path d="M67 118.326C67 108.99 59.5008 101.422 50.25 101.422C40.9992 101.422 33.5 108.99 33.5 118.326C33.5 127.661 40.9992 135.229 50.25 135.229C59.5008 135.229 67 127.661 67 118.326Z"/>
<path d="M67 50.711C67 41.3754 59.5008 33.8073 50.25 33.8073C40.9992 33.8073 33.5 41.3754 33.5 50.711C33.5 60.0467 40.9992 67.6147 50.25 67.6147C59.5008 67.6147 67 60.0467 67 50.711Z"/>
<path d="M134 84.5184C134 75.1827 126.501 67.6147 117.25 67.6147C107.999 67.6147 100.5 75.1827 100.5 84.5184C100.5 93.854 107.999 101.422 117.25 101.422C126.501 101.422 134 93.854 134 84.5184Z"/>
<path d="M134 16.9037C134 7.56804 126.501 9.59472e-06 117.25 8.78599e-06C107.999 7.97726e-06 100.5 7.56804 100.5 16.9037C100.5 26.2393 107.999 33.8074 117.25 33.8074C126.501 33.8074 134 26.2393 134 16.9037Z"/>
<path d="M67 84.5184C67 75.1827 59.5008 67.6147 50.25 67.6147C40.9992 67.6147 33.5 75.1827 33.5 84.5184C33.5 93.854 40.9992 101.422 50.25 101.422C59.5008 101.422 67 93.854 67 84.5184Z"/>
<path d="M67 16.9037C67 7.56804 59.5008 3.73739e-06 50.25 2.92866e-06C40.9992 2.11994e-06 33.5 7.56803 33.5 16.9037C33.5 26.2393 40.9992 33.8073 50.25 33.8073C59.5008 33.8073 67 26.2393 67 16.9037Z"/>
<path d="M234.5 118.326C234.5 108.99 227.001 101.422 217.75 101.422C208.499 101.422 201 108.99 201 118.326C201 127.661 208.499 135.229 217.75 135.229C227.001 135.229 234.5 127.661 234.5 118.326Z"/>
<path d="M234.5 50.711C234.5 41.3754 227.001 33.8074 217.75 33.8074C208.499 33.8074 201 41.3754 201 50.711C201 60.0467 208.499 67.6147 217.75 67.6147C227.001 67.6147 234.5 60.0467 234.5 50.711Z"/>
<path d="M167.5 118.326C167.5 108.99 160.001 101.422 150.75 101.422C141.499 101.422 134 108.99 134 118.326C134 127.661 141.499 135.229 150.75 135.229C160.001 135.229 167.5 127.661 167.5 118.326Z"/>
<path d="M167.5 50.711C167.5 41.3754 160.001 33.8073 150.75 33.8073C141.499 33.8073 134 41.3754 134 50.711C134 60.0467 141.499 67.6147 150.75 67.6147C160.001 67.6147 167.5 60.0467 167.5 50.711Z"/>
<path d="M234.5 84.5184C234.5 75.1827 227.001 67.6147 217.75 67.6147C208.499 67.6147 201 75.1827 201 84.5184C201 93.854 208.499 101.422 217.75 101.422C227.001 101.422 234.5 93.854 234.5 84.5184Z"/>
<path d="M234.5 16.9037C234.5 7.56804 227.001 6.66605e-06 217.75 5.85733e-06C208.499 5.0486e-06 201 7.56804 201 16.9037C201 26.2393 208.499 33.8074 217.75 33.8074C227.001 33.8074 234.5 26.2393 234.5 16.9037Z"/>
<path d="M167.5 84.5184C167.5 75.1827 160.001 67.6147 150.75 67.6147C141.499 67.6147 134 75.1827 134 84.5184C134 93.854 141.499 101.422 150.75 101.422C160.001 101.422 167.5 93.854 167.5 84.5184Z"/>
<path d="M167.5 16.9037C167.5 7.56803 160.001 8.08728e-07 150.75 0C141.499 -8.08728e-07 134 7.56804 134 16.9037C134 26.2393 141.499 33.8073 150.75 33.8073C160.001 33.8073 167.5 26.2393 167.5 16.9037Z"/>
<path d="M268 118.326C268 108.99 260.501 101.422 251.25 101.422C241.999 101.422 234.5 108.99 234.5 118.326C234.5 127.661 241.999 135.229 251.25 135.229C260.501 135.229 268 127.661 268 118.326Z"/>
<path d="M268 50.711C268 41.3754 260.501 33.8074 251.25 33.8074C241.999 33.8074 234.5 41.3754 234.5 50.711C234.5 60.0467 241.999 67.6147 251.25 67.6147C260.501 67.6147 268 60.0467 268 50.711Z"/>
<path d="M201 118.326C201 108.99 193.501 101.422 184.25 101.422C174.999 101.422 167.5 108.99 167.5 118.326C167.5 127.661 174.999 135.229 184.25 135.229C193.501 135.229 201 127.661 201 118.326Z"/>
<path d="M201 50.711C201 41.3754 193.501 33.8073 184.25 33.8073C174.999 33.8073 167.5 41.3754 167.5 50.711C167.5 60.0467 174.999 67.6147 184.25 67.6147C193.501 67.6147 201 60.0467 201 50.711Z"/>
<path d="M268 84.5184C268 75.1827 260.501 67.6147 251.25 67.6147C241.999 67.6147 234.5 75.1827 234.5 84.5184C234.5 93.854 241.999 101.422 251.25 101.422C260.501 101.422 268 93.854 268 84.5184Z"/>
<path d="M268 16.9037C268 7.56804 260.501 9.59472e-06 251.25 8.78599e-06C241.999 7.97726e-06 234.5 7.56804 234.5 16.9037C234.5 26.2393 241.999 33.8074 251.25 33.8074C260.501 33.8074 268 26.2393 268 16.9037Z"/>
<path d="M201 84.5184C201 75.1827 193.501 67.6147 184.25 67.6147C174.999 67.6147 167.5 75.1827 167.5 84.5184C167.5 93.854 174.999 101.422 184.25 101.422C193.501 101.422 201 93.854 201 84.5184Z"/>
<path d="M201 16.9037C201 7.56804 193.501 3.73739e-06 184.25 2.92866e-06C174.999 2.11994e-06 167.5 7.56803 167.5 16.9037C167.5 26.2393 174.999 33.8073 184.25 33.8073C193.501 33.8073 201 26.2393 201 16.9037Z"/>
</mask>
<path d="M99.5 118.326C99.5 109.534 92.4399 102.422 83.75 102.422V100.422C93.5616 100.422 101.5 108.446 101.5 118.326H99.5ZM83.75 102.422C75.0601 102.422 68 109.534 68 118.326H66C66 108.446 73.9384 100.422 83.75 100.422V102.422ZM68 118.326C68 127.118 75.0601 134.229 83.75 134.229V136.229C73.9383 136.229 66 128.205 66 118.326H68ZM83.75 134.229C92.4399 134.229 99.5 127.118 99.5 118.326H101.5C101.5 128.205 93.5616 136.229 83.75 136.229V134.229ZM99.5 50.711C99.5 41.919 92.4399 34.8074 83.75 34.8074V32.8074C93.5616 32.8074 101.5 40.8317 101.5 50.711H99.5ZM83.75 34.8074C75.0601 34.8074 68 41.919 68 50.711H66C66 40.8317 73.9384 32.8074 83.75 32.8074V34.8074ZM68 50.711C68 59.503 75.0601 66.6147 83.75 66.6147V68.6147C73.9384 68.6147 66 60.5903 66 50.711H68ZM83.75 66.6147C92.4399 66.6147 99.5 59.503 99.5 50.711H101.5C101.5 60.5903 93.5616 68.6147 83.75 68.6147V66.6147ZM32.5 118.326C32.5 109.534 25.4399 102.422 16.75 102.422V100.422C26.5616 100.422 34.5 108.446 34.5 118.326H32.5ZM16.75 102.422C8.06012 102.422 1 109.534 1 118.326H-1C-1 108.446 6.93835 100.422 16.75 100.422V102.422ZM1 118.326C1 127.118 8.06012 134.229 16.75 134.229V136.229C6.93835 136.229 -1 128.205 -1 118.326H1ZM16.75 134.229C25.4399 134.229 32.5 127.118 32.5 118.326H34.5C34.5 128.205 26.5616 136.229 16.75 136.229V134.229ZM32.5 50.711C32.5 41.919 25.4399 34.8073 16.75 34.8073V32.8073C26.5616 32.8073 34.5 40.8317 34.5 50.711H32.5ZM16.75 34.8073C8.06012 34.8073 1 41.919 1 50.711H-1C-1 40.8317 6.93835 32.8073 16.75 32.8073V34.8073ZM1 50.711C1 59.503 8.06012 66.6147 16.75 66.6147V68.6147C6.93835 68.6147 -1 60.5903 -1 50.711H1ZM16.75 66.6147C25.4399 66.6147 32.5 59.503 32.5 50.711H34.5C34.5 60.5903 26.5616 68.6147 16.75 68.6147V66.6147ZM99.5 84.5184C99.5 75.7264 92.4399 68.6147 83.75 68.6147V66.6147C93.5616 66.6147 101.5 74.6391 101.5 84.5184H99.5ZM83.75 68.6147C75.0601 68.6147 68 75.7264 68 84.5184H66C66 74.6391 73.9384 66.6147 83.75 66.6147V68.6147ZM68 84.5184C68 93.3103 75.0601 100.422 83.75 100.422V102.422C73.9384 102.422 66 94.3977 66 84.5184H68ZM83.75 100.422C92.4399 100.422 99.5 93.3103 99.5 84.5184H101.5C101.5 94.3977 93.5616 102.422 83.75 102.422V100.422ZM99.5 16.9037C99.5 8.11169 92.4399 1.00001 83.75 1.00001V-0.999994C93.5616 -0.999993 101.5 7.02438 101.5 16.9037H99.5ZM83.75 1.00001C75.0601 1.00001 68 8.11169 68 16.9037H66C66 7.02438 73.9384 -0.999995 83.75 -0.999994V1.00001ZM68 16.9037C68 25.6957 75.0601 32.8074 83.75 32.8074V34.8074C73.9384 34.8074 66 26.783 66 16.9037H68ZM83.75 32.8074C92.4399 32.8074 99.5 25.6957 99.5 16.9037H101.5C101.5 26.783 93.5616 34.8074 83.75 34.8074V32.8074ZM32.5 84.5184C32.5 75.7264 25.4399 68.6147 16.75 68.6147V66.6147C26.5616 66.6147 34.5 74.6391 34.5 84.5184H32.5ZM16.75 68.6147C8.06012 68.6147 1 75.7264 1 84.5184H-1C-1 74.6391 6.93835 66.6147 16.75 66.6147V68.6147ZM1 84.5184C1 93.3103 8.06012 100.422 16.75 100.422V102.422C6.93835 102.422 -1 94.3977 -1 84.5184H1ZM16.75 100.422C25.4399 100.422 32.5 93.3103 32.5 84.5184H34.5C34.5 94.3977 26.5616 102.422 16.75 102.422V100.422ZM32.5 16.9037C32.5 8.11169 25.4399 1 16.75 1V-1C26.5616 -0.999999 34.5 7.02438 34.5 16.9037H32.5ZM16.75 1C8.06012 0.999999 1 8.11168 1 16.9037H-1C-1 7.02437 6.93835 -1 16.75 -1V1ZM1 16.9037C1 25.6957 8.06012 32.8073 16.75 32.8073V34.8073C6.93835 34.8073 -1 26.783 -1 16.9037H1ZM16.75 32.8073C25.4399 32.8073 32.5 25.6957 32.5 16.9037H34.5C34.5 26.783 26.5616 34.8073 16.75 34.8073V32.8073ZM133 118.326C133 109.534 125.94 102.422 117.25 102.422V100.422C127.062 100.422 135 108.446 135 118.326H133ZM117.25 102.422C108.56 102.422 101.5 109.534 101.5 118.326H99.5C99.5 108.446 107.438 100.422 117.25 100.422V102.422ZM101.5 118.326C101.5 127.118 108.56 134.229 117.25 134.229V136.229C107.438 136.229 99.5 128.205 99.5 118.326H101.5ZM117.25 134.229C125.94 134.229 133 127.118 133 118.326H135C135 128.205 127.062 136.229 117.25 136.229V134.229ZM133 50.711C133 41.919 125.94 34.8074 117.25 34.8074V32.8074C127.062 32.8074 135 40.8317 135 50.711H133ZM117.25 34.8074C108.56 34.8074 101.5 41.919 101.5 50.711H99.5C99.5 40.8317 107.438 32.8074 117.25 32.8074V34.8074ZM101.5 50.711C101.5 59.503 108.56 66.6147 117.25 66.6147V68.6147C107.438 68.6147 99.5 60.5903 99.5 50.711H101.5ZM117.25 66.6147C125.94 66.6147 133 59.503 133 50.711H135C135 60.5903 127.062 68.6147 117.25 68.6147V66.6147ZM66 118.326C66 109.534 58.9399 102.422 50.25 102.422V100.422C60.0616 100.422 68 108.446 68 118.326H66ZM50.25 102.422C41.5601 102.422 34.5 109.534 34.5 118.326H32.5C32.5 108.446 40.4384 100.422 50.25 100.422V102.422ZM34.5 118.326C34.5 127.118 41.5601 134.229 50.25 134.229V136.229C40.4384 136.229 32.5 128.205 32.5 118.326H34.5ZM50.25 134.229C58.9399 134.229 66 127.118 66 118.326H68C68 128.205 60.0616 136.229 50.25 136.229V134.229ZM66 50.711C66 41.919 58.9399 34.8073 50.25 34.8073V32.8073C60.0616 32.8073 68 40.8317 68 50.711H66ZM50.25 34.8073C41.5601 34.8073 34.5 41.919 34.5 50.711H32.5C32.5 40.8317 40.4384 32.8073 50.25 32.8073V34.8073ZM34.5 50.711C34.5 59.503 41.5601 66.6147 50.25 66.6147V68.6147C40.4384 68.6147 32.5 60.5903 32.5 50.711H34.5ZM50.25 66.6147C58.9399 66.6147 66 59.503 66 50.711H68C68 60.5903 60.0616 68.6147 50.25 68.6147V66.6147ZM133 84.5184C133 75.7264 125.94 68.6147 117.25 68.6147V66.6147C127.062 66.6147 135 74.6391 135 84.5184H133ZM117.25 68.6147C108.56 68.6147 101.5 75.7264 101.5 84.5184H99.5C99.5 74.6391 107.438 66.6147 117.25 66.6147V68.6147ZM101.5 84.5184C101.5 93.3103 108.56 100.422 117.25 100.422V102.422C107.438 102.422 99.5 94.3977 99.5 84.5184H101.5ZM117.25 100.422C125.94 100.422 133 93.3103 133 84.5184H135C135 94.3977 127.062 102.422 117.25 102.422V100.422ZM133 16.9037C133 8.1117 125.94 1.00001 117.25 1.00001V-0.999991C127.062 -0.99999 135 7.02439 135 16.9037H133ZM117.25 1.00001C108.56 1.00001 101.5 8.11169 101.5 16.9037H99.5C99.5 7.02438 107.438 -0.999992 117.25 -0.999991V1.00001ZM101.5 16.9037C101.5 25.6957 108.56 32.8074 117.25 32.8074V34.8074C107.438 34.8074 99.5 26.783 99.5 16.9037H101.5ZM117.25 32.8074C125.94 32.8074 133 25.6957 133 16.9037H135C135 26.783 127.062 34.8074 117.25 34.8074V32.8074ZM66 84.5184C66 75.7264 58.9399 68.6147 50.25 68.6147V66.6147C60.0616 66.6147 68 74.6391 68 84.5184H66ZM50.25 68.6147C41.5601 68.6147 34.5 75.7264 34.5 84.5184H32.5C32.5 74.6391 40.4384 66.6147 50.25 66.6147V68.6147ZM34.5 84.5184C34.5 93.3103 41.5601 100.422 50.25 100.422V102.422C40.4384 102.422 32.5 94.3977 32.5 84.5184H34.5ZM50.25 100.422C58.9399 100.422 66 93.3103 66 84.5184H68C68 94.3977 60.0616 102.422 50.25 102.422V100.422ZM66 16.9037C66 8.11169 58.9399 1 50.25 1V-0.999997C60.0616 -0.999996 68 7.02438 68 16.9037H66ZM50.25 1C41.5601 1 34.5 8.11169 34.5 16.9037H32.5C32.5 7.02438 40.4384 -0.999998 50.25 -0.999997V1ZM34.5 16.9037C34.5 25.6957 41.5601 32.8073 50.25 32.8073V34.8073C40.4384 34.8073 32.5 26.783 32.5 16.9037H34.5ZM50.25 32.8073C58.9399 32.8073 66 25.6957 66 16.9037H68C68 26.783 60.0616 34.8073 50.25 34.8073V32.8073ZM233.5 118.326C233.5 109.534 226.44 102.422 217.75 102.422V100.422C227.562 100.422 235.5 108.446 235.5 118.326H233.5ZM217.75 102.422C209.06 102.422 202 109.534 202 118.326H200C200 108.446 207.938 100.422 217.75 100.422V102.422ZM202 118.326C202 127.118 209.06 134.229 217.75 134.229V136.229C207.938 136.229 200 128.205 200 118.326H202ZM217.75 134.229C226.44 134.229 233.5 127.118 233.5 118.326H235.5C235.5 128.205 227.562 136.229 217.75 136.229V134.229ZM233.5 50.711C233.5 41.919 226.44 34.8074 217.75 34.8074V32.8074C227.562 32.8074 235.5 40.8317 235.5 50.711H233.5ZM217.75 34.8074C209.06 34.8074 202 41.919 202 50.711H200C200 40.8317 207.938 32.8074 217.75 32.8074V34.8074ZM202 50.711C202 59.503 209.06 66.6147 217.75 66.6147V68.6147C207.938 68.6147 200 60.5903 200 50.711H202ZM217.75 66.6147C226.44 66.6147 233.5 59.503 233.5 50.711H235.5C235.5 60.5903 227.562 68.6147 217.75 68.6147V66.6147ZM166.5 118.326C166.5 109.534 159.44 102.422 150.75 102.422V100.422C160.562 100.422 168.5 108.446 168.5 118.326H166.5ZM150.75 102.422C142.06 102.422 135 109.534 135 118.326H133C133 108.446 140.938 100.422 150.75 100.422V102.422ZM135 118.326C135 127.118 142.06 134.229 150.75 134.229V136.229C140.938 136.229 133 128.205 133 118.326H135ZM150.75 134.229C159.44 134.229 166.5 127.118 166.5 118.326H168.5C168.5 128.205 160.562 136.229 150.75 136.229V134.229ZM166.5 50.711C166.5 41.919 159.44 34.8073 150.75 34.8073V32.8073C160.562 32.8073 168.5 40.8317 168.5 50.711H166.5ZM150.75 34.8073C142.06 34.8073 135 41.919 135 50.711H133C133 40.8317 140.938 32.8073 150.75 32.8073V34.8073ZM135 50.711C135 59.503 142.06 66.6147 150.75 66.6147V68.6147C140.938 68.6147 133 60.5903 133 50.711H135ZM150.75 66.6147C159.44 66.6147 166.5 59.503 166.5 50.711H168.5C168.5 60.5903 160.562 68.6147 150.75 68.6147V66.6147ZM233.5 84.5184C233.5 75.7264 226.44 68.6147 217.75 68.6147V66.6147C227.562 66.6147 235.5 74.6391 235.5 84.5184H233.5ZM217.75 68.6147C209.06 68.6147 202 75.7264 202 84.5184H200C200 74.6391 207.938 66.6147 217.75 66.6147V68.6147ZM202 84.5184C202 93.3103 209.06 100.422 217.75 100.422V102.422C207.938 102.422 200 94.3977 200 84.5184H202ZM217.75 100.422C226.44 100.422 233.5 93.3103 233.5 84.5184H235.5C235.5 94.3977 227.562 102.422 217.75 102.422V100.422ZM233.5 16.9037C233.5 8.11169 226.44 1.00001 217.75 1.00001V-0.999994C227.562 -0.999993 235.5 7.02438 235.5 16.9037H233.5ZM217.75 1.00001C209.06 1.00001 202 8.11169 202 16.9037H200C200 7.02438 207.938 -0.999995 217.75 -0.999994V1.00001ZM202 16.9037C202 25.6957 209.06 32.8074 217.75 32.8074V34.8074C207.938 34.8074 200 26.783 200 16.9037H202ZM217.75 32.8074C226.44 32.8074 233.5 25.6957 233.5 16.9037H235.5C235.5 26.783 227.562 34.8074 217.75 34.8074V32.8074ZM166.5 84.5184C166.5 75.7264 159.44 68.6147 150.75 68.6147V66.6147C160.562 66.6147 168.5 74.6391 168.5 84.5184H166.5ZM150.75 68.6147C142.06 68.6147 135 75.7264 135 84.5184H133C133 74.6391 140.938 66.6147 150.75 66.6147V68.6147ZM135 84.5184C135 93.3103 142.06 100.422 150.75 100.422V102.422C140.938 102.422 133 94.3977 133 84.5184H135ZM150.75 100.422C159.44 100.422 166.5 93.3103 166.5 84.5184H168.5C168.5 94.3977 160.562 102.422 150.75 102.422V100.422ZM166.5 16.9037C166.5 8.11169 159.44 1 150.75 1V-1C160.562 -0.999999 168.5 7.02438 168.5 16.9037H166.5ZM150.75 1C142.06 0.999999 135 8.1117 135 16.9037H133C133 7.02439 140.938 -1 150.75 -1V1ZM135 16.9037C135 25.6957 142.06 32.8073 150.75 32.8073V34.8073C140.938 34.8073 133 26.783 133 16.9037H135ZM150.75 32.8073C159.44 32.8073 166.5 25.6957 166.5 16.9037H168.5C168.5 26.783 160.562 34.8073 150.75 34.8073V32.8073ZM267 118.326C267 109.534 259.94 102.422 251.25 102.422V100.422C261.062 100.422 269 108.446 269 118.326H267ZM251.25 102.422C242.56 102.422 235.5 109.534 235.5 118.326H233.5C233.5 108.446 241.438 100.422 251.25 100.422V102.422ZM235.5 118.326C235.5 127.118 242.56 134.229 251.25 134.229V136.229C241.438 136.229 233.5 128.205 233.5 118.326H235.5ZM251.25 134.229C259.94 134.229 267 127.118 267 118.326H269C269 128.205 261.062 136.229 251.25 136.229V134.229ZM267 50.711C267 41.919 259.94 34.8074 251.25 34.8074V32.8074C261.062 32.8074 269 40.8317 269 50.711H267ZM251.25 34.8074C242.56 34.8074 235.5 41.919 235.5 50.711H233.5C233.5 40.8317 241.438 32.8074 251.25 32.8074V34.8074ZM235.5 50.711C235.5 59.503 242.56 66.6147 251.25 66.6147V68.6147C241.438 68.6147 233.5 60.5903 233.5 50.711H235.5ZM251.25 66.6147C259.94 66.6147 267 59.503 267 50.711H269C269 60.5903 261.062 68.6147 251.25 68.6147V66.6147ZM200 118.326C200 109.534 192.94 102.422 184.25 102.422V100.422C194.062 100.422 202 108.446 202 118.326H200ZM184.25 102.422C175.56 102.422 168.5 109.534 168.5 118.326H166.5C166.5 108.446 174.438 100.422 184.25 100.422V102.422ZM168.5 118.326C168.5 127.118 175.56 134.229 184.25 134.229V136.229C174.438 136.229 166.5 128.205 166.5 118.326H168.5ZM184.25 134.229C192.94 134.229 200 127.118 200 118.326H202C202 128.205 194.062 136.229 184.25 136.229V134.229ZM200 50.711C200 41.919 192.94 34.8073 184.25 34.8073V32.8073C194.062 32.8073 202 40.8317 202 50.711H200ZM184.25 34.8073C175.56 34.8073 168.5 41.919 168.5 50.711H166.5C166.5 40.8317 174.438 32.8073 184.25 32.8073V34.8073ZM168.5 50.711C168.5 59.503 175.56 66.6147 184.25 66.6147V68.6147C174.438 68.6147 166.5 60.5903 166.5 50.711H168.5ZM184.25 66.6147C192.94 66.6147 200 59.503 200 50.711H202C202 60.5903 194.062 68.6147 184.25 68.6147V66.6147ZM267 84.5184C267 75.7264 259.94 68.6147 251.25 68.6147V66.6147C261.062 66.6147 269 74.6391 269 84.5184H267ZM251.25 68.6147C242.56 68.6147 235.5 75.7264 235.5 84.5184H233.5C233.5 74.6391 241.438 66.6147 251.25 66.6147V68.6147ZM235.5 84.5184C235.5 93.3103 242.56 100.422 251.25 100.422V102.422C241.438 102.422 233.5 94.3977 233.5 84.5184H235.5ZM251.25 100.422C259.94 100.422 267 93.3103 267 84.5184H269C269 94.3977 261.062 102.422 251.25 102.422V100.422ZM267 16.9037C267 8.1117 259.94 1.00001 251.25 1.00001V-0.999991C261.062 -0.99999 269 7.02439 269 16.9037H267ZM251.25 1.00001C242.56 1.00001 235.5 8.11169 235.5 16.9037H233.5C233.5 7.02438 241.438 -0.999992 251.25 -0.999991V1.00001ZM235.5 16.9037C235.5 25.6957 242.56 32.8074 251.25 32.8074V34.8074C241.438 34.8074 233.5 26.783 233.5 16.9037H235.5ZM251.25 32.8074C259.94 32.8074 267 25.6957 267 16.9037H269C269 26.783 261.062 34.8074 251.25 34.8074V32.8074ZM200 84.5184C200 75.7264 192.94 68.6147 184.25 68.6147V66.6147C194.062 66.6147 202 74.6391 202 84.5184H200ZM184.25 68.6147C175.56 68.6147 168.5 75.7264 168.5 84.5184H166.5C166.5 74.6391 174.438 66.6147 184.25 66.6147V68.6147ZM168.5 84.5184C168.5 93.3103 175.56 100.422 184.25 100.422V102.422C174.438 102.422 166.5 94.3977 166.5 84.5184H168.5ZM184.25 100.422C192.94 100.422 200 93.3103 200 84.5184H202C202 94.3977 194.062 102.422 184.25 102.422V100.422ZM200 16.9037C200 8.11169 192.94 1 184.25 1V-0.999997C194.062 -0.999996 202 7.02438 202 16.9037H200ZM184.25 1C175.56 1 168.5 8.11169 168.5 16.9037H166.5C166.5 7.02438 174.438 -0.999998 184.25 -0.999997V1ZM168.5 16.9037C168.5 25.6957 175.56 32.8073 184.25 32.8073V34.8073C174.438 34.8073 166.5 26.783 166.5 16.9037H168.5ZM184.25 32.8073C192.94 32.8073 200 25.6957 200 16.9037H202C202 26.783 194.062 34.8073 184.25 34.8073V32.8073Z" fill="url(#paint0_linear_2660_12674)" mask="url(#path-1-inside-1_2660_12674)"/>
</g>
<defs>
<linearGradient id="paint0_linear_2660_12674" x1="414.5" y1="68" x2="121.416" y2="219.857" gradientUnits="userSpaceOnUse">
<stop stop-color="white"/>
<stop offset="1" stop-color="white" stop-opacity="0.05"/>
</linearGradient>
</defs>
</svg>
