<svg width="130" height="172" viewBox="0 0 130 172" fill="none" xmlns="http://www.w3.org/2000/svg">
<g clip-path="url(#clip0_2043_33196)">
<g clip-path="url(#clip1_2043_33196)">
<path d="M1 150.5C1 138.902 10.402 129.5 22 129.5C33.598 129.5 43 138.902 43 150.5C43 162.098 33.598 171.5 22 171.5C10.402 171.5 1 162.098 1 150.5ZM22 86.5C33.598 86.5 43 95.902 43 107.5C43 119.098 33.598 128.5 22 128.5C10.402 128.5 1 119.098 1.00001 107.5C1.00001 95.902 10.402 86.5 22 86.5ZM-21 0.499987C-9.40201 0.499988 1.41711e-05 9.902 1.31571e-05 21.5C1.21432e-05 33.098 -9.40201 42.5 -21 42.5C-32.598 42.5 -42 33.098 -42 21.5C-42 9.90199 -32.598 0.499986 -21 0.499987ZM65 86.5C76.598 86.5 86 95.902 86 107.5C86 119.098 76.598 128.5 65 128.5C53.402 128.5 44 119.098 44 107.5C44 95.902 53.402 86.5 65 86.5ZM65 43.5C76.598 43.5 86 52.902 86 64.5C86 76.098 76.598 85.5 65 85.5C53.402 85.5 44 76.098 44 64.5C44 52.902 53.402 43.5 65 43.5ZM65 0.499994C76.598 0.499995 86 9.902 86 21.5C86 33.098 76.598 42.5 65 42.5C53.402 42.5 44 33.098 44 21.5C44 9.902 53.402 0.499993 65 0.499994ZM22 0.499991C33.598 0.499992 43 9.902 43 21.5C43 33.098 33.598 42.5 22 42.5C10.402 42.5 1.00001 33.098 1.00001 21.5C1.00001 9.902 10.402 0.49999 22 0.499991ZM-21 43.5C-9.40201 43.5 1.04119e-05 52.902 9.39795e-06 64.5C8.38402e-06 76.098 -9.40202 85.5 -21 85.5C-32.598 85.5 -42 76.098 -42 64.5C-42 52.902 -32.598 43.5 -21 43.5ZM65 129.5C76.598 129.5 86 138.902 86 150.5C86 162.098 76.598 171.5 65 171.5C53.402 171.5 44 162.098 44 150.5C44 138.902 53.402 129.5 65 129.5ZM22 43.5C33.598 43.5 43 52.902 43 64.5C43 76.098 33.598 85.5 22 85.5C10.402 85.5 1.00001 76.098 1.00001 64.5C1.00001 52.902 10.402 43.5 22 43.5ZM-21 129.5C-9.40202 129.5 2.89352e-06 138.902 1.87959e-06 150.5C8.65662e-07 162.098 -9.40202 171.5 -21 171.5C-32.598 171.5 -42 162.098 -42 150.5C-42 138.902 -32.598 129.5 -21 129.5ZM-21 86.5C-9.40202 86.5 6.6527e-06 95.902 5.63877e-06 107.5C4.62484e-06 119.098 -9.40202 128.5 -21 128.5C-32.598 128.5 -42 119.098 -42 107.5C-42 95.902 -32.598 86.5 -21 86.5ZM87 150.5C87 138.902 96.402 129.5 108 129.5C119.598 129.5 129 138.902 129 150.5C129 162.098 119.598 171.5 108 171.5C96.402 171.5 87 162.098 87 150.5ZM87 64.5C87 52.902 96.402 43.5 108 43.5C119.598 43.5 129 52.902 129 64.5C129 76.098 119.598 85.5 108 85.5C96.402 85.5 87 76.098 87 64.5ZM87 107.5C87 95.902 96.402 86.5 108 86.5C119.598 86.5 129 95.902 129 107.5C129 119.098 119.598 128.5 108 128.5C96.402 128.5 87 119.098 87 107.5ZM87 21.5C87 9.902 96.402 0.499997 108 0.499998C119.598 0.499999 129 9.90201 129 21.5C129 33.098 119.598 42.5 108 42.5C96.402 42.5 87 33.098 87 21.5Z" stroke="#F5C48A"/>
</g>
</g>
<defs>
<clipPath id="clip0_2043_33196">
<rect width="129" height="172" fill="white" transform="translate(129.5 172) rotate(-180)"/>
</clipPath>
<clipPath id="clip1_2043_33196">
<rect width="172" height="172" fill="white" transform="translate(129.5 172) rotate(-180)"/>
</clipPath>
</defs>
</svg>
