<svg width="172" height="129" viewBox="0 0 172 129" fill="none" xmlns="http://www.w3.org/2000/svg">
<g clip-path="url(#clip0_1442_14261)">
<g clip-path="url(#clip1_1442_14261)">
<path d="M150.5 128.5C138.902 128.5 129.5 119.098 129.5 107.5C129.5 95.902 138.902 86.5 150.5 86.5C162.098 86.5 171.5 95.902 171.5 107.5C171.5 119.098 162.098 128.5 150.5 128.5ZM86.5 107.5C86.5 95.902 95.902 86.5 107.5 86.5C119.098 86.5 128.5 95.902 128.5 107.5C128.5 119.098 119.098 128.5 107.5 128.5C95.902 128.5 86.5 119.098 86.5 107.5ZM0.499993 150.5C0.499994 138.902 9.902 129.5 21.5 129.5C33.098 129.5 42.5 138.902 42.5 150.5C42.5 162.098 33.098 171.5 21.5 171.5C9.902 171.5 0.499993 162.098 0.499993 150.5ZM86.5 64.5C86.5 52.902 95.902 43.5 107.5 43.5C119.098 43.5 128.5 52.902 128.5 64.5C128.5 76.098 119.098 85.5 107.5 85.5C95.902 85.5 86.5 76.098 86.5 64.5ZM43.5 64.5C43.5 52.902 52.902 43.5 64.5 43.5C76.098 43.5 85.5 52.902 85.5 64.5C85.5 76.098 76.098 85.5 64.5 85.5C52.902 85.5 43.5 76.098 43.5 64.5ZM0.499997 64.5C0.499998 52.902 9.90201 43.5 21.5 43.5C33.098 43.5 42.5 52.902 42.5 64.5C42.5 76.098 33.098 85.5 21.5 85.5C9.902 85.5 0.499997 76.098 0.499997 64.5ZM0.499995 107.5C0.499996 95.902 9.902 86.5 21.5 86.5C33.098 86.5 42.5 95.902 42.5 107.5C42.5 119.098 33.098 128.5 21.5 128.5C9.902 128.5 0.499995 119.098 0.499995 107.5ZM43.5 150.5C43.5 138.902 52.902 129.5 64.5 129.5C76.098 129.5 85.5 138.902 85.5 150.5C85.5 162.098 76.098 171.5 64.5 171.5C52.902 171.5 43.5 162.098 43.5 150.5ZM129.5 64.5C129.5 52.902 138.902 43.5 150.5 43.5C162.098 43.5 171.5 52.902 171.5 64.5C171.5 76.098 162.098 85.5 150.5 85.5C138.902 85.5 129.5 76.098 129.5 64.5ZM43.5 107.5C43.5 95.902 52.902 86.5 64.5 86.5C76.098 86.5 85.5 95.902 85.5 107.5C85.5 119.098 76.098 128.5 64.5 128.5C52.902 128.5 43.5 119.098 43.5 107.5ZM129.5 150.5C129.5 138.902 138.902 129.5 150.5 129.5C162.098 129.5 171.5 138.902 171.5 150.5C171.5 162.098 162.098 171.5 150.5 171.5C138.902 171.5 129.5 162.098 129.5 150.5ZM86.5 150.5C86.5 138.902 95.902 129.5 107.5 129.5C119.098 129.5 128.5 138.902 128.5 150.5C128.5 162.098 119.098 171.5 107.5 171.5C95.902 171.5 86.5 162.098 86.5 150.5ZM150.5 42.5C138.902 42.5 129.5 33.098 129.5 21.5C129.5 9.90202 138.902 0.499999 150.5 0.499999C162.098 0.5 171.5 9.90202 171.5 21.5C171.5 33.098 162.098 42.5 150.5 42.5ZM64.5 42.5C52.902 42.5 43.5 33.098 43.5 21.5C43.5 9.90201 52.902 0.499995 64.5 0.499995C76.098 0.499996 85.5 9.90202 85.5 21.5C85.5 33.098 76.098 42.5 64.5 42.5ZM107.5 42.5C95.902 42.5 86.5 33.098 86.5 21.5C86.5 9.90202 95.902 0.499997 107.5 0.499997C119.098 0.499998 128.5 9.90202 128.5 21.5C128.5 33.098 119.098 42.5 107.5 42.5ZM21.5 42.5C9.90201 42.5 0.499999 33.098 0.499999 21.5C0.5 9.90201 9.90201 0.499993 21.5 0.499993C33.098 0.499994 42.5 9.90201 42.5 21.5C42.5 33.098 33.098 42.5 21.5 42.5Z" stroke="#B0D0FF"/>
</g>
</g>
<defs>
<clipPath id="clip0_1442_14261">
<rect width="129" height="172" fill="white" transform="translate(172) rotate(90)"/>
</clipPath>
<clipPath id="clip1_1442_14261">
<rect width="172" height="172" fill="white" transform="translate(172) rotate(90)"/>
</clipPath>
</defs>
</svg>
