<svg width="40" height="37" viewBox="0 0 40 37" fill="none" xmlns="http://www.w3.org/2000/svg">
<path id="&#226;&#128;&#156;" d="M21.914 0.499796L21.414 0.499796L21.414 0.999796L21.414 18.0099L21.414 18.5099L21.914 18.5099L29.5382 18.5099C29.3437 20.2412 28.7497 21.7361 27.7639 23.0089L27.7639 23.0089L27.7612 23.0125C26.6779 24.4376 24.6773 25.9117 21.6892 27.4157L21.2464 27.6386L21.4655 28.0833L25.1576 35.5779L25.3746 36.0183L25.8189 35.8094C30.7597 33.487 34.3049 30.785 36.3907 27.6779C38.4816 24.5634 39.5 20.3556 39.5 15.1047L39.5 0.999798L39.5 0.499798L39 0.499798L21.914 0.499796ZM2 0.499795L1.5 0.499795L1.5 0.999795L1.5 18.0099L1.5 18.5099L2 18.5099L9.62418 18.5099C9.42971 20.2412 8.83572 21.7361 7.84991 23.0089L7.84717 23.0125C6.76394 24.4376 4.76325 25.9117 1.7752 27.4157L1.3324 27.6386L1.55148 28.0833L5.24362 35.5779L5.46057 36.0183L5.90485 35.8094C10.8457 33.487 14.3909 30.785 16.4767 27.6779C18.5675 24.5634 19.586 20.3556 19.586 15.1047L19.586 0.999796L19.586 0.499796L19.086 0.499796L2 0.499795Z" stroke="#CDD0D7"/>
</svg>
