<svg width="26" height="48" viewBox="0 0 26 48" fill="none" xmlns="http://www.w3.org/2000/svg">
<path d="M6.69407 17.1459C6.69407 17.1459 8.58546 14.7081 7.36225 11.3225C6.13477 7.93906 3.27635 6.65399 3.27635 6.65399C3.27635 6.65399 1.13734 9.55928 2.33279 12.8573C3.52612 16.1575 6.69407 17.1459 6.69407 17.1459Z" fill="#F5C48A"/>
<path d="M11.9426 18.8774C11.9426 18.8774 15.2494 18.6127 17.1429 15.6562C19.0364 12.7018 17.589 9.39732 17.589 9.39732C17.589 9.39732 14.5193 10.0206 12.5745 13.054C10.6319 16.0852 11.9426 18.8774 11.9426 18.8774Z" fill="#F5C48A"/>
<path d="M12.2787 22.7838C10.748 26.0435 12.411 28.6435 12.411 28.6435C12.411 28.6435 15.658 27.9476 17.148 24.7734C18.6359 21.5948 16.7702 18.5081 16.7702 18.5081C16.7702 18.5081 13.8093 19.5242 12.2787 22.7838Z" fill="#F5C48A"/>
<path d="M19.7521 25.4088C19.7521 25.4088 16.8979 26.7024 15.6811 30.088C14.4643 33.48 16.3621 35.9092 16.3621 35.9092C16.3621 35.9092 19.5258 34.9123 20.7127 31.61C21.8975 28.3076 19.7521 25.4088 19.7521 25.4088Z" fill="#F5C48A"/>
<path d="M22.1303 43.238C22.1303 43.238 24.8756 41.3702 25.0613 37.8672C25.2449 34.362 22.3523 32.206 22.3523 32.206C22.3523 32.206 19.9913 34.266 19.8013 37.8608C19.6134 41.4534 22.1303 43.238 22.1303 43.238Z" fill="#F5C48A"/>
<path d="M10.9095 10.6221C10.9095 10.6221 13.8362 9.64444 14.6944 6.14999C15.5547 2.65553 13.8917 9.4445e-08 13.8917 9.4445e-08C13.8917 9.4445e-08 10.5018 1.22957 9.6628 4.63864C8.82598 8.04558 10.9095 10.6221 10.9095 10.6221Z" fill="#F5C48A"/>
<path d="M6.69157 24.5769C6.69157 24.5769 7.77816 21.6887 5.61139 18.8176C3.44036 15.9443 0.332173 15.558 0.332173 15.558C0.332173 15.558 -0.854744 18.9649 1.25865 21.7656C3.37205 24.5684 6.69157 24.5769 6.69157 24.5769Z" fill="#F5C48A"/>
<path d="M9.11714 32.1973C9.11714 32.1973 9.53341 29.1405 6.78386 26.8222C4.03004 24.5018 0.913318 24.8178 0.913318 24.8178C0.913318 24.8178 0.511986 28.404 3.19322 30.6646C5.87873 32.9231 9.11714 32.1973 9.11714 32.1973Z" fill="#F5C48A"/>
<path d="M12.8099 38.4987C12.8099 38.4987 12.2869 35.459 8.96095 34.0842C5.63288 32.7052 2.75952 33.9497 2.75952 33.9497C2.75952 33.9497 3.46398 37.489 6.70452 38.8339C9.94506 40.1723 12.8099 38.4987 12.8099 38.4987Z" fill="#F5C48A"/>
<path d="M14.4236 41.1159C10.9568 40.1467 8.2499 41.7243 8.2499 41.7243C8.2499 41.7243 9.37064 45.1525 12.7478 46.0982C16.1292 47.0439 18.772 45.0394 18.772 45.0394C18.772 45.0394 17.8904 42.0829 14.4236 41.1159Z" fill="#F5C48A"/>
<path d="M11.2706 12.7053L9.72932 11.9475C9.6482 12.1162 1.71976 28.9566 23.9979 48L25.1123 46.6957C3.90147 28.5617 10.9589 13.3436 11.2706 12.7053Z" fill="#F5C48A"/>
</svg>
