<svg width="110" height="126" viewBox="0 0 110 126" fill="none" xmlns="http://www.w3.org/2000/svg">
<g opacity="0.2">
<path d="M42.6594 71.9534C42.401 71.9933 42.0551 72.0396 41.6348 72.0796C40.6289 72.1755 39.2014 72.2351 37.5279 72.088C34.18 71.7936 29.8749 70.675 25.9761 67.3895L25.9757 67.3892C22.097 64.1258 20.4342 59.895 19.7445 56.4441C19.3999 54.7204 19.3008 53.2026 19.2877 52.1178C19.2825 51.6845 19.2911 51.3212 19.3031 51.0427C19.5381 51.0361 19.8346 51.033 20.185 51.0399C21.1623 51.0589 22.5561 51.1549 24.2046 51.4636C27.5021 52.0811 31.8025 53.5468 35.836 56.9382C39.8396 60.3138 41.5285 64.2139 42.2218 67.2687C42.569 68.7987 42.6661 70.1167 42.6768 71.0477C42.681 71.4136 42.6719 71.7191 42.6594 71.9534ZM67.6654 52.8987L67.6654 52.8989C67.4307 57.9945 65.33 61.9159 63.2741 64.5741C62.2465 65.9029 61.2341 66.9105 60.4812 67.584C60.1663 67.8656 59.8975 68.0882 59.6927 68.2509C59.5121 68.1013 59.2813 67.901 59.0151 67.6498C58.3383 67.0113 57.4361 66.0471 56.5481 64.7553C54.7752 62.1762 53.0583 58.2922 53.3008 53.0607C53.5461 47.7899 55.3868 43.6337 57.1697 40.7917C58.061 39.371 58.9358 38.2821 59.5846 37.5514C59.8171 37.2895 60.0204 37.0739 60.1846 36.9058C60.3974 37.0859 60.6701 37.326 60.985 37.6238C61.7731 38.3691 62.8209 39.4716 63.8534 40.8939C65.9206 43.7416 67.9004 47.8337 67.6654 52.8987ZM71.409 62.6507C71.6053 62.3611 71.7787 62.1211 71.9195 61.9333C72.154 62.084 72.4558 62.2866 72.807 62.5408C73.6857 63.1768 74.8686 64.133 76.0785 65.4084C78.5008 67.9618 81.0006 71.7605 81.4353 76.8129C81.8663 81.8888 80.2937 86.0499 78.6007 88.9547C77.7544 90.4066 76.8814 91.5387 76.2222 92.3054C75.9466 92.626 75.7089 92.8821 75.5269 93.0704C75.3283 92.9454 75.0733 92.7767 74.7766 92.5621C74.022 92.0165 73.0014 91.1771 71.9521 90.011C69.8571 87.6828 67.6472 84.0531 67.2046 78.8333C66.7591 73.579 68.0412 69.2221 69.4378 66.1748C70.1359 64.6514 70.8611 63.4589 71.409 62.6507ZM97.3441 105.285C97.1003 105.629 96.8881 105.906 96.725 106.11C96.5158 106.005 96.2467 105.861 95.9318 105.675C95.1302 105.203 94.0363 104.464 92.8829 103.402C90.5802 101.281 88.0398 97.8749 87.1055 92.7164C86.1698 87.5323 87.0374 83.0736 88.1417 79.9063C88.6938 78.323 89.3037 77.0664 89.7733 76.2092C89.9415 75.9021 90.0915 75.6466 90.2141 75.446C90.4614 75.5742 90.7804 75.7475 91.1533 75.9675C92.0874 76.5187 93.3542 77.3602 94.6776 78.5169C97.3272 80.8327 100.17 84.3807 101.073 89.369C101.979 94.3865 100.805 98.6772 99.3947 101.727C98.6895 103.252 97.9276 104.46 97.3441 105.285ZM122.597 116.656C122.366 116.615 122.067 116.554 121.712 116.467C120.807 116.245 119.546 115.851 118.135 115.165C115.318 113.796 111.905 111.266 109.528 106.604C107.137 101.906 106.684 97.3858 106.829 94.0346C106.902 92.3593 107.124 90.9803 107.327 90.0243C107.4 89.6814 107.47 89.3933 107.53 89.1659C107.804 89.2172 108.16 89.291 108.581 89.3941C109.635 89.652 111.091 90.0919 112.692 90.8173C115.897 92.2698 119.643 94.8472 121.946 99.3658C124.257 103.908 124.367 108.356 123.893 111.686C123.657 113.35 123.274 114.727 122.953 115.686C122.818 116.086 122.695 116.413 122.597 116.656ZM46.9548 31.9961L46.955 31.9965C48.4155 37.0228 47.6573 41.2023 46.5391 44.127C45.979 45.5919 45.3283 46.7418 44.8205 47.5221C44.6209 47.8287 44.4437 48.0777 44.3033 48.2657C44.0666 48.1556 43.7539 48.0025 43.383 47.803C42.4943 47.325 41.2754 46.5831 39.9664 45.5329C37.3478 43.4318 34.3896 40.1144 32.9676 35.2196C31.5544 30.3472 32.5195 25.9029 33.8604 22.649C34.5301 21.0237 35.2896 19.7061 35.8805 18.7966C36.1163 18.4336 36.3247 18.1365 36.4891 17.9116C36.688 18.0366 36.936 18.1985 37.2232 18.3986C38.025 18.9571 39.1304 19.8108 40.3291 20.983C42.7271 23.3277 45.4874 26.935 46.9548 31.9961ZM53.7069 91.6098C53.4717 91.7243 53.1548 91.8707 52.765 92.0331C51.8321 92.4218 50.4856 92.9003 48.8431 93.2537C45.5571 93.9607 41.1132 94.162 36.4182 92.1707L36.418 92.1706C31.7498 90.1928 28.9133 86.6386 27.2364 83.5436C26.3989 81.9978 25.8565 80.5764 25.5241 79.5437C25.3914 79.1313 25.2924 78.7817 25.2218 78.5121C25.4442 78.4367 25.7262 78.3467 26.0626 78.2503C27.0018 77.981 28.3616 77.6626 30.0277 77.4726C33.3605 77.0926 37.9027 77.2278 42.7597 79.282C47.5773 81.323 50.3412 84.5496 51.9052 87.2632C52.6886 88.6224 53.1706 89.8529 53.4559 90.7393C53.568 91.0877 53.6495 91.3823 53.7069 91.6098ZM71.0352 107.271C71.2218 107.585 71.3667 107.854 71.4732 108.063C71.2692 108.226 70.9929 108.439 70.6491 108.684C69.8253 109.269 68.6181 110.035 67.0945 110.744C64.0464 112.163 59.7573 113.348 54.7379 112.458C49.7496 111.566 46.1959 108.73 43.8743 106.084C42.7148 104.762 41.8704 103.497 41.3171 102.563C41.0959 102.19 40.9218 101.871 40.7929 101.623C40.9931 101.5 41.2482 101.35 41.5549 101.181C42.4106 100.709 43.6653 100.096 45.2471 99.54C48.4113 98.4283 52.8689 97.5508 58.0599 98.4771C63.2098 99.3978 66.6218 101.929 68.7502 104.227C69.8162 105.378 70.5599 106.47 71.0352 107.271ZM74.934 114.174L74.9347 114.174C80.1243 113.487 84.1402 114.866 86.8611 116.412C88.2239 117.187 89.2617 118.003 89.9558 118.623C90.2287 118.866 90.4479 119.079 90.6123 119.246C90.4676 119.464 90.2687 119.751 90.015 120.089C89.408 120.896 88.4902 121.991 87.2543 123.129C84.7818 125.404 81.057 127.832 76.0082 128.502C70.9813 129.16 66.7335 127.532 63.7184 125.713C62.2124 124.805 61.0239 123.854 60.2136 123.132C59.8898 122.844 59.6271 122.592 59.4293 122.396C59.5827 122.218 59.78 121.997 60.0208 121.743C60.6933 121.035 61.7032 120.071 63.0423 119.063C65.721 117.047 69.7039 114.862 74.934 114.174ZM99.9048 124.29L99.9052 124.29C104.976 122.986 109.128 123.876 112.014 125.087C113.459 125.693 114.587 126.381 115.35 126.913C115.65 127.123 115.893 127.308 116.077 127.454C115.959 127.688 115.796 127.997 115.584 128.362C115.079 129.236 114.298 130.433 113.207 131.709C111.023 134.263 107.612 137.117 102.67 138.384C97.7609 139.64 93.3524 138.533 90.1439 137.089C88.5414 136.367 87.2488 135.566 86.3587 134.946C86.0033 134.698 85.7129 134.48 85.4933 134.309C85.6246 134.114 85.7943 133.871 86.0035 133.59C86.5872 132.807 87.4757 131.729 88.6854 130.568C91.1053 128.245 94.7989 125.599 99.9048 124.29Z" stroke="url(#paint0_linear_301_395)" stroke-width="1.5"/>
<path d="M45.6189 54.0821C45.7674 56.2202 50.2846 106.633 133.067 122.018" stroke="url(#paint1_linear_301_395)" stroke-width="1.5"/>
</g>
<defs>
<linearGradient id="paint0_linear_301_395" x1="32.8097" y1="18.9429" x2="105.225" y2="144.369" gradientUnits="userSpaceOnUse">
<stop stop-color="#F8D7B0"/>
<stop offset="1" stop-color="#F8D7B0" stop-opacity="0"/>
</linearGradient>
<linearGradient id="paint1_linear_301_395" x1="29.8102" y1="18.943" x2="102.225" y2="144.369" gradientUnits="userSpaceOnUse">
<stop stop-color="#F8D7B0"/>
<stop offset="1" stop-color="#F8D7B0" stop-opacity="0"/>
</linearGradient>
</defs>
</svg>
