<svg width="26" height="48" viewBox="0 0 26 48" fill="none" xmlns="http://www.w3.org/2000/svg">
<path d="M18.5288 17.1483C18.5288 17.1483 16.6353 14.7105 17.8607 11.3271C19.0839 7.9415 21.9444 6.65644 21.9444 6.65644C21.9444 6.65644 24.0813 9.55957 22.8858 12.8597C21.6968 16.1599 18.5288 17.1483 18.5288 17.1483Z" fill="#F5C48A"/>
<path d="M13.2789 18.8785C13.2789 18.8785 9.97215 18.6117 8.07651 15.6573C6.18301 12.7029 7.63035 9.39849 7.63035 9.39849C7.63035 9.39849 10.7001 10.0218 12.647 13.053C14.5896 16.0864 13.2789 18.8785 13.2789 18.8785Z" fill="#F5C48A"/>
<path d="M12.9439 22.7837C14.4745 26.0433 12.8115 28.6433 12.8115 28.6433C12.8115 28.6433 9.56458 27.9474 8.0724 24.7732C6.58663 21.5947 8.45025 18.508 8.45025 18.508C8.45025 18.508 11.4133 19.5262 12.9439 22.7837Z" fill="#F5C48A"/>
<path d="M5.47079 25.4111C5.47079 25.4111 8.32279 26.7025 9.54172 30.0945C10.7585 33.4843 8.85861 35.9136 8.85861 35.9136C8.85861 35.9136 5.69708 34.9145 4.51016 31.6122C3.32325 28.3099 5.47079 25.4111 5.47079 25.4111Z" fill="#F5C48A"/>
<path d="M3.08815 43.2373C3.08815 43.2373 0.345025 41.3716 0.159304 37.8665C-0.0242833 34.3614 2.87041 32.2033 2.87041 32.2033C2.87041 32.2033 5.22716 34.2632 5.41928 37.8601C5.60927 41.457 3.08815 43.2373 3.08815 43.2373Z" fill="#F5C48A"/>
<path d="M14.3081 10.6242C14.3081 10.6242 11.3857 9.64651 10.5275 6.15208C9.66722 2.65765 11.3323 7.62808e-08 11.3323 7.62808e-08C11.3323 7.62808e-08 14.7223 1.22956 15.5591 4.64074C16.3959 8.04552 14.3081 10.6242 14.3081 10.6242Z" fill="#F5C48A"/>
<path d="M18.5304 24.578C18.5304 24.578 17.4439 21.6898 19.6085 18.8187C21.7795 15.9455 24.8898 15.5591 24.8898 15.5591C24.8898 15.5591 26.0789 18.966 23.9633 21.7667C21.8478 24.5695 18.5304 24.578 18.5304 24.578Z" fill="#F5C48A"/>
<path d="M16.1053 32.1992C16.1053 32.1992 15.6869 29.1424 18.4385 26.8199C21.1923 24.5017 24.309 24.8176 24.309 24.8176C24.309 24.8176 24.7104 28.406 22.027 30.6644C19.3437 32.9229 16.1053 32.1992 16.1053 32.1992Z" fill="#F5C48A"/>
<path d="M12.4111 38.5002C12.4111 38.5002 12.9362 35.4583 16.2621 34.0815C19.5923 32.7025 22.4635 33.947 22.4635 33.947C22.4635 33.947 21.7591 37.4863 18.5185 38.8289C15.2759 40.1738 12.4111 38.5002 12.4111 38.5002Z" fill="#F5C48A"/>
<path d="M10.7965 41.1172C14.2633 40.1502 16.9723 41.7256 16.9723 41.7256C16.9723 41.7256 15.8537 45.1517 12.4744 46.1037C9.0951 47.0451 6.4523 45.0407 6.4523 45.0407C6.4523 45.0407 7.33181 42.0863 10.7965 41.1172Z" fill="#F5C48A"/>
<path d="M13.9496 12.7077L15.4952 11.9499C15.5763 12.1186 23.5047 28.9589 1.2245 48L0.112304 46.6957C21.3187 28.5661 14.2613 13.3439 13.9496 12.7077Z" fill="#F5C48A"/>
</svg>
