<svg width="48" height="48" viewBox="0 0 48 48" fill="none" xmlns="http://www.w3.org/2000/svg">
<path d="M34.4249 18.7764C26.9856 18.7764 20.9333 24.8288 20.9333 32.268C21.6744 50.1663 47.178 50.1611 47.9164 32.2679C47.9165 24.8288 41.8642 18.7764 34.4249 18.7764ZM39.9533 35.225C39.9533 37.5403 38.1327 39.4382 35.848 39.563V40.5537C35.7641 42.66 32.756 42.6584 32.673 40.5537V39.5699H30.8016C28.6953 39.486 28.6969 36.4779 30.8016 36.3949H35.6084C36.2535 36.3949 36.7783 35.8701 36.7783 35.225V34.7957C36.7783 34.1506 36.2535 33.6258 35.6084 33.6258H33.2415C27.8183 33.4541 27.3562 25.8319 32.673 24.9745V23.9822C32.7569 21.8759 35.7649 21.8775 35.848 23.9822V24.9362H37.5086C39.6149 25.0201 39.6133 28.0282 37.5086 28.1112H33.2414C31.6891 28.1757 31.6902 30.387 33.2414 30.4509H35.6083C38.0041 30.4509 39.9532 32.4001 39.9532 34.7958V35.225H39.9533Z" fill="white"/>
<path d="M27.0915 17.3043C27.0924 17.2841 27.0935 17.2632 27.0942 17.2452C26.3189 -0.632297 0.847272 -0.602954 0.111167 17.2737C0.0269816 26.3732 9.26561 33.0349 17.9056 30.0556C18.6528 24.4468 22.1999 19.7114 27.0915 17.3043ZM16.3986 15.6014C18.5049 15.6853 18.5033 18.6934 16.3986 18.7764H11.6103C12.2773 20.7829 14.171 22.2345 16.3986 22.2345C17.2753 22.2345 17.9861 22.9453 17.9861 23.822C17.9861 24.6987 17.2753 25.4095 16.3986 25.4095C12.4088 25.4095 9.07511 22.552 8.33329 18.7764H7.41859C5.31228 18.6925 5.31387 15.6844 7.41859 15.6014H8.33329C9.0752 11.8258 12.4089 8.96829 16.3986 8.96829C17.2753 8.96829 17.9861 9.67908 17.9861 10.5558C17.9861 11.4325 17.2753 12.1433 16.3986 12.1433C14.171 12.1433 12.2773 13.5949 11.6103 15.6014H16.3986Z" fill="#B0F0BE"/>
</svg>
