<svg width="48" height="48" viewBox="0 0 48 48" fill="none" xmlns="http://www.w3.org/2000/svg">
<path d="M45.1026 19.9349C41.0889 17.5109 39.5777 17.5 38.0001 17.5C36.4591 17.5 35.9942 18.1484 35.7598 18.7148C35.5066 19.7843 35.4919 20.8963 35.7167 21.9721C35.9415 23.0478 36.4003 24.0609 37.0606 24.9395C40.6622 28.541 39.0294 32.2637 38.0548 34.4883C37.8118 34.9689 37.6256 35.4763 37.5001 36C37.5001 36.544 38.4176 37.6508 39.8038 38.5271C42.0912 36.0659 43.7637 33.0983 44.6846 29.867C45.6055 26.6356 45.7488 23.2322 45.1026 19.9349Z" fill="white"/>
<path d="M29.2989 11.1289C29.771 11.012 30.2057 10.7773 30.5623 10.4466C30.919 10.1159 31.1859 9.70019 31.338 9.23826L32.9298 4.46654C30.8318 3.4968 28.5899 2.87514 26.292 2.62598C26.0425 4.17102 25.8477 6.02526 25.709 8.13868C25.6793 8.59323 25.7575 9.04837 25.9372 9.46695C26.1169 9.88553 26.3931 10.2557 26.7431 10.5472C27.0931 10.8388 27.5071 11.0434 27.9512 11.1445C28.3954 11.2456 28.8572 11.2402 29.2989 11.1289Z" fill="white"/>
<path d="M2.61475 21.7813C2.69971 21.7781 2.78615 21.7559 2.87111 21.7559C6.64649 21.7559 10.1563 24.959 13.3418 31.3301C13.6001 32.0228 13.9977 32.6553 14.51 33.1884C15.0223 33.7215 15.6384 34.144 16.3203 34.4297C18.2422 34.9805 20.7227 33.4297 22.9082 32.0703C23.7656 31.5371 24.5821 31.0332 25.3301 30.6582C25.9414 30.4032 26.4825 30.0051 26.9077 29.4972C27.3329 28.9894 27.6299 28.3868 27.7735 27.7402C27.8526 27.2594 27.8184 26.7669 27.6736 26.3017C27.5288 25.8364 27.2774 25.4114 26.9395 25.0605C25.2324 23.3554 23.4707 21.9433 20.6699 23.3418C19.4259 24.0022 18.0364 24.3412 16.628 24.3279C15.2196 24.3146 13.8368 23.9494 12.6054 23.2656C12.0034 22.9481 11.4934 22.4809 11.1246 21.9088C10.7558 21.3368 10.5407 20.6794 10.5 20C10.5388 18.8635 10.9933 17.7807 11.7773 16.957C13.0479 15.3414 13.9979 13.4978 14.5762 11.5254C15.2365 9.31041 15.2033 6.94641 14.481 4.75085C11.2279 6.35919 8.43418 8.76385 6.35957 11.7413C4.28496 14.7188 2.99677 18.1725 2.61475 21.7813Z" fill="white"/>
<path d="M34.5 36C34.5814 35.0496 34.8559 34.1258 35.3066 33.2852C36.3848 30.8242 36.9414 29.0625 34.9395 27.0605C33.8556 25.7622 33.1102 24.2156 32.7697 22.5589C32.4293 20.9022 32.5043 19.187 32.9883 17.5664C33.3974 16.5949 34.1012 15.7764 35.0004 15.2262C35.8996 14.676 36.9488 14.422 38 14.5C40.0502 14.4368 42.0815 14.9096 43.8931 15.8717C42.2117 11.7886 39.3195 8.31875 35.606 5.92944L34.1856 10.1874C33.8747 11.129 33.3299 11.9763 32.6023 12.6499C31.8747 13.3235 30.9881 13.8015 30.0254 14.0391C29.5503 14.1589 29.0622 14.2199 28.5723 14.2207C27.7683 14.2168 26.9735 14.0485 26.237 13.7262C25.5004 13.4039 24.8375 12.9343 24.2891 12.3464C23.7407 11.7584 23.3183 11.0645 23.0479 10.3074C22.7775 9.55017 22.6648 8.74569 22.7168 7.94336C22.8486 5.90246 23.0371 4.09498 23.2744 2.53674C21.2346 2.6004 19.2144 2.95581 17.2754 3.59216C18.2587 6.46353 18.3106 9.57199 17.4238 12.4746C16.7401 14.7635 15.6323 16.9035 14.1582 18.7832C13.5742 19.5449 13.5 19.6816 13.5 20C13.5 20.0781 13.6621 20.3906 14.1836 20.7129C14.9781 21.1333 15.865 21.3484 16.7637 21.3389C17.6625 21.3293 18.5446 21.0954 19.33 20.6582C20.9654 19.854 22.8291 19.6417 24.6034 20.0577C26.3778 20.4737 27.9529 21.4922 29.0605 22.9395C29.7366 23.6251 30.2408 24.4611 30.5318 25.379C30.8227 26.297 30.8921 27.2708 30.7343 28.2207C30.522 29.3395 30.0412 30.3901 29.3332 31.2821C28.6253 32.1741 27.7114 32.8809 26.67 33.3418C25.9981 33.6778 25.2657 34.1367 24.4942 34.6172C22.3561 36.2337 19.822 37.2444 17.1582 37.543C16.5991 37.544 16.0425 37.4684 15.5039 37.3184C14.4134 36.9304 13.4175 36.3155 12.5822 35.5142C11.7469 34.7129 11.0911 33.7435 10.6582 32.67C7.26219 25.8809 4.40185 24.6737 2.53955 24.7824C2.67845 28.778 3.93058 32.6554 6.15481 35.9775C8.37904 39.2997 11.487 41.9346 15.1283 43.5853C18.7696 45.2359 22.7996 45.8367 26.7641 45.32C30.7285 44.8032 34.4699 43.1894 37.5664 40.6605C36.7349 40.1676 36.0266 39.4917 35.4953 38.6842C34.964 37.8767 34.6236 36.9587 34.5 36Z" fill="#D7BDFB"/>
</svg>
