<svg width="48" height="48" viewBox="0 0 48 48" fill="none" xmlns="http://www.w3.org/2000/svg">
<path d="M23.9999 8.55884C23.2226 8.55884 22.5937 7.92987 22.5937 7.15259V4.34009C22.5937 3.56281 23.2226 2.93384 23.9999 2.93384C24.7772 2.93384 25.4062 3.56281 25.4062 4.34009V7.15259C25.4062 7.92987 24.7772 8.55884 23.9999 8.55884Z" fill="white"/>
<path d="M13.6412 10.3043L12.235 7.8694C11.8463 7.19646 12.077 6.33678 12.7499 5.94818C13.42 5.5609 14.2811 5.7875 14.6711 6.46315L16.0774 8.89803C16.4661 9.57097 16.2354 10.4307 15.5624 10.8192C14.8918 11.2066 14.0302 10.9778 13.6412 10.3043Z" fill="white"/>
<path d="M32.4374 10.8192C31.7645 10.4306 31.5338 9.57097 31.9225 8.89803L33.3287 6.46315C33.716 5.7875 34.5784 5.5609 35.2499 5.94818C35.9229 6.33687 36.1536 7.19647 35.7649 7.8694L34.3586 10.3043C33.969 10.979 33.1067 11.2059 32.4374 10.8192Z" fill="white"/>
<path d="M35.9791 36.0549L26.0502 26.126L23.0424 29.1132C21.4048 30.7394 18.7304 30.7344 17.0991 29.1019L15.1023 27.1038C14.5533 26.5544 14.5535 25.6641 15.1027 25.1149L23.062 17.1556C25.3773 14.8403 29.2432 14.4873 31.9169 16.2602L35.6422 12.5516C36.189 12.0045 37.084 12.0044 37.6309 12.5514L47.5886 22.5091C48.1375 23.058 48.1369 23.9482 47.5872 24.4962L35.9791 36.0549Z" fill="white"/>
<path d="M26.0435 30.096L25.0328 31.0998C22.307 33.8228 17.8598 33.8365 15.1121 31.0916L13.1126 29.0921C11.4688 27.4469 11.4688 24.7717 13.114 23.1265L21.0187 15.2219C19.3458 14.9973 17.6047 15.3243 16.1957 16.2601L12.357 12.3456C12.0934 12.082 11.7363 11.9336 11.3628 11.9336C10.9893 11.9336 10.6322 12.0819 10.3686 12.3456L0.412031 22.3021C0.148313 22.5657 0 22.9241 0 23.299C0 23.6725 0.149719 24.0296 0.414656 24.2932L19.0959 43.0215C20.4582 44.3852 22.2559 45.0664 24.0563 45.0664C25.858 45.0664 27.6638 44.3852 29.0454 43.0202L33.9975 38.0502L26.0435 30.096Z" fill="#F8D7B0"/>
</svg>
