<svg width="48" height="48" viewBox="0 0 48 48" fill="none" xmlns="http://www.w3.org/2000/svg">
<path d="M19.502 24C19.502 21.5148 21.5168 19.5 24.002 19.5C26.4872 19.5 28.502 21.5148 28.502 24C28.502 26.4852 26.4872 28.5 24.002 28.5C21.5168 28.5 19.502 26.4852 19.502 24Z" fill="#EA7E00"/>
<path fill-rule="evenodd" clip-rule="evenodd" d="M12.7054 11.1914C15.8485 8.61792 19.7201 6.49994 24.002 6.49994C28.284 6.49994 32.1556 8.61792 35.2986 11.1914C38.4588 13.7789 41.0428 16.9572 42.7792 19.376L42.9224 19.5751C43.9678 21.0275 44.8282 22.2233 44.8282 23.9999C44.8282 25.7765 43.9678 26.9723 42.9224 28.4247L42.7792 28.6239C41.0428 31.0427 38.4588 34.2209 35.2986 36.8085C32.1556 39.3819 28.284 41.4999 24.002 41.4999C19.7201 41.4999 15.8485 39.3819 12.7054 36.8085C9.54524 34.2209 6.9612 31.0427 5.2248 28.6239L5.08158 28.4247C4.03626 26.9723 3.17578 25.7765 3.17578 23.9999C3.17578 22.2233 4.03626 21.0275 5.08158 19.5751L5.2248 19.376C6.9612 16.9572 9.54524 13.7789 12.7054 11.1914ZM24.002 16.4999C19.8598 16.4999 16.502 19.8578 16.502 23.9999C16.502 28.1421 19.8598 31.4999 24.002 31.4999C28.1442 31.4999 31.502 28.1421 31.502 23.9999C31.502 19.8578 28.1442 16.4999 24.002 16.4999Z" fill="#F1A954"/>
</svg>
