<svg width="48" height="48" viewBox="0 0 48 48" fill="none" xmlns="http://www.w3.org/2000/svg">
<g clip-path="url(#clip0_2923_4059)">
<path d="M23.9999 15.0577C22.6584 15.0577 21.385 15.3558 20.2422 15.8891C20.2826 15.8886 20.3229 15.8882 20.3633 15.8882C24.8284 15.8882 28.461 19.5271 28.461 24C28.461 26.4261 26.4906 28.4 24.0687 28.4C21.6467 28.4 19.6763 26.4261 19.6763 24H22.4839C22.4839 24.8753 23.1949 25.5875 24.0687 25.5875C24.9425 25.5875 25.6534 24.8753 25.6534 24C25.6534 21.078 23.2803 18.7007 20.3633 18.7007C17.4463 18.7007 15.0732 21.0779 15.0732 24C15.0732 28.9308 19.0778 32.9422 24 32.9422C28.9223 32.9422 32.9268 28.9308 32.9268 24C32.9268 19.0692 28.9222 15.0577 23.9999 15.0577Z" fill="white"/>
<path d="M47.7489 23.4402C47.6725 23.2642 45.8368 19.0787 42.0304 14.8546C39.7777 12.3548 37.297 10.3585 34.6573 8.92163C31.3246 7.10738 27.739 6.1875 24 6.1875C20.261 6.1875 16.6754 7.10738 13.3426 8.92163C10.7029 10.3586 8.22225 12.3548 5.96953 14.8546C2.16319 19.0787 0.327375 23.2641 0.251063 23.4402C0.091357 23.809 0.0968546 24.2285 0.266156 24.593C0.347625 24.7686 2.30663 28.9406 6.16913 33.1542C8.45597 35.6488 10.9404 37.6412 13.5537 39.0759C16.861 40.8918 20.3757 41.8125 24 41.8125C27.6243 41.8125 31.139 40.8918 34.4464 39.0759C37.0596 37.6413 39.544 35.6489 41.831 33.1542C45.6935 28.9406 47.6525 24.7686 47.7339 24.593C47.9032 24.2285 47.9087 23.809 47.7489 23.4402ZM24 35.7548C17.5297 35.7548 12.2656 30.4816 12.2656 24C12.2656 17.5184 17.5297 12.2453 24 12.2453C30.4703 12.2453 35.7344 17.5184 35.7344 24C35.7344 30.4816 30.4703 35.7548 24 35.7548Z" fill="#B0D0FF"/>
</g>
<defs>
<clipPath id="clip0_2923_4059">
<rect width="48" height="48" fill="white"/>
</clipPath>
</defs>
</svg>
