<svg width="48" height="48" viewBox="0 0 48 48" fill="none" xmlns="http://www.w3.org/2000/svg">
<path d="M25 2.5H8C7.60218 2.5 7.22064 2.65804 6.93934 2.93934C6.65804 3.22064 6.5 3.60218 6.5 4V44C6.5 44.3978 6.65804 44.7794 6.93934 45.0607C7.22064 45.342 7.60218 45.5 8 45.5C8.39783 45.5 8.77936 45.342 9.06066 45.0607C9.34197 44.7794 9.5 44.3978 9.5 44V23.5H25C25.663 23.5 26.2989 23.2366 26.7678 22.7678C27.2366 22.2989 27.5 21.663 27.5 21V5C27.5 4.33696 27.2366 3.70107 26.7678 3.23223C26.2989 2.76339 25.663 2.5 25 2.5Z" fill="#0068FF"/>
<path d="M20.5 25.5V27C20.5 27.663 20.7634 28.2989 21.2322 28.7678C21.7011 29.2366 22.337 29.5 23 29.5H39C39.663 29.5 40.2989 29.2366 40.7678 28.7678C41.2366 28.2989 41.5 27.663 41.5 27V11C41.5 10.337 41.2366 9.70107 40.7678 9.23223C40.2989 8.76339 39.663 8.5 39 8.5H29.5V23.5C29.5 24.0304 29.2893 24.5391 28.9142 24.9142C28.5391 25.2893 28.0304 25.5 27.5 25.5H20.5Z" fill="#549AFF"/>
</svg>
